<svg height="89" viewBox="351 315 374 89" width="374" xmlns="http://www.w3.org/2000/svg"><path d="m130.9728125 12.6665625v19.42875h2.2584375q1.175625 0 1.87171875-.29390625.69609375-.29390625 1.31484375-1.00546875l14.7571875-16.70625q.680625-.7734375 1.31484375-1.09828125.63421875-.32484375 1.62421875-.32484375h5.1046875l-16.891875 19.0884375q-.6496875.7115625-1.22203125 1.2065625-.57234375.495-1.22203125.804375.86625.2784375 1.5159375.8353125.6496875.556875 1.36125 1.3921875l17.634375 21.0065625h-5.1975q-.5878125 0-.99-.0928125-.4021875-.0928125-.69609375-.2475-.29390625-.1546875-.54140625-.4021875-.2475-.2475-.495-.5259375l-15.3140625-17.6034375q-.3403125-.37125-.63421875-.63421875-.29390625-.26296875-.680625-.44859375-.38671875-.185625-.8971875-.26296875-.51046875-.07734375-1.25296875-.07734375h-2.7225v20.295h-5.9709375v-44.3334375zm75.796875 22.1821875q0 4.9809375-1.5778125 9.14203125-1.5778125 4.16109375-4.455 7.16203125-2.8771875 3.0009375-6.91453125 4.65609375-4.03734375 1.65515625-8.92546875 1.65515625-4.888125 0-8.91-1.65515625-4.021875-1.65515625-6.8990625-4.65609375-2.8771875-3.0009375-4.455-7.16203125-1.5778125-4.16109375-1.5778125-9.14203125 0-4.9809375 1.5778125-9.14203125 1.5778125-4.16109375 4.455-7.1775 2.8771875-3.01640625 6.8990625-4.68703125 4.021875-1.670625 8.91-1.670625 4.888125 0 8.92546875 1.670625 4.03734375 1.670625 6.91453125 4.68703125 2.8771875 3.01640625 4.455 7.1775 1.5778125 4.16109375 1.5778125 9.14203125zm-6.1565625 0q0-4.08375-1.11375-7.3321875-1.11375-3.2484375-3.155625-5.49140625-2.041875-2.24296875-4.95-3.44953125-2.908125-1.2065625-6.496875-1.2065625-3.5578125 0-6.4659375 1.2065625-2.908125 1.2065625-4.96546875 3.44953125-2.05734375 2.24296875-3.17109375 5.49140625-1.11375 3.2484375-1.11375 7.3321875 0 4.08375 1.11375 7.31671875 1.11375 3.23296875 3.17109375 5.4759375 2.05734375 2.24296875 4.96546875 3.4340625 2.908125 1.19109375 6.4659375 1.19109375 3.58875 0 6.496875-1.19109375 2.908125-1.19109375 4.95-3.4340625 2.041875-2.24296875 3.155625-5.4759375 1.11375-3.23296875 1.11375-7.31671875zm17.44875-22.1821875q.804375 0 1.19109375.20109375.38671875.20109375.88171875.81984375l25.678125 33.4125q-.0928125-.804375-.12375-1.56234375-.0309375-.75796875-.0309375-1.46953125v-31.4015625h5.259375v44.3334375h-3.031875q-.7115625 0-1.19109375-.2475-.47953125-.2475-.94359375-.8353125l-25.6471875-33.3815625q.061875.7734375.0928125 1.5159375.0309375.7425.0309375 1.36125v31.5871875h-5.259375v-44.3334375zm43.68375 0h27.3178125v4.888125h-21.285v14.72625h17.2321875v4.7025h-17.2321875v15.1284375h21.285v4.888125h-27.3178125zm42.5390625 0v19.42875h2.2584375q1.175625 0 1.87171875-.29390625.69609375-.29390625 1.31484375-1.00546875l14.7571875-16.70625q.680625-.7734375 1.31484375-1.09828125.63421875-.32484375 1.62421875-.32484375h5.1046875l-16.891875 19.0884375q-.6496875.7115625-1.22203125 1.2065625-.57234375.495-1.22203125.804375.86625.2784375 1.5159375.8353125.6496875.556875 1.36125 1.3921875l17.634375 21.0065625h-5.1975q-.5878125 0-.99-.0928125-.4021875-.0928125-.69609375-.2475-.29390625-.1546875-.54140625-.4021875-.2475-.2475-.495-.5259375l-15.3140625-17.6034375q-.3403125-.37125-.63421875-.63421875-.29390625-.26296875-.680625-.44859375-.38671875-.185625-.8971875-.26296875-.51046875-.07734375-1.25296875-.07734375h-2.7225v20.295h-5.9709375v-44.3334375zm31.0303125 0h34.711875v5.0428125h-14.3240625v39.290625h-6.001875v-39.290625h-14.3859375zm48.13875 0v44.3334375h-6.001875v-44.3334375z" fill="#fff" stroke="#1c4568" stroke-miterlimit="10" stroke-width="1.85625" transform="translate(338 323)"/><g fill="#faac3a" transform="matrix(.97289203 0 0 .97289203 331.159813 285.804483)"><path d="m46.255 96.141-.938-2.159c-.025 0-.051-.025-.051-.054l-2.368-.154c-8.222-.521-14.7-7.414-14.7-15.663 0-8.689 7.078-15.738 15.533-15.738h4.683l-.47-4.319c-.051-.546-.104-1.092-.104-1.639 0-8.689 7.078-15.739 15.742-15.739.104 0 .208 0 .312.025v-7.44c0-.129 0-.234.025-.365-.104-.025-.234-.025-.338-.025-12.462 0-22.688 9.729-23.493 22.01-11.161 1.847-19.695 11.551-19.695 23.23 0 11.555 8.483 21.336 19.695 23.209 2.965 5.383 7.855 9.339 13.605 11.109v-8.354c-3.276-1.638-5.929-4.395-7.438-7.934zm59.291-44.929c2.757 3.617 3.953 8.326 3.485 13.321h7.83c.471-6.686-1.301-13.008-5.124-18.03-4.71-6.217-12.202-9.808-20.525-9.808-3.461 0-7 .625-10.406 1.847v8.455c3.355-1.639 6.945-2.498 10.406-2.498 5.853.001 11.082 2.446 14.334 6.713z"/><path d="m59.393 55.661c-1.248 1.249-1.248 3.331 0 4.58l10.666 10.666 2.291 2.291 2.29-2.291c.025 0 .025 0 .025-.025l10.64-10.64c1.275-1.275 1.275-3.331 0-4.58a3.25 3.25 0 0 0 -2.314-.963c-.833 0-1.667.312-2.289.963l-5.099 5.074v-27.475a3.252 3.252 0 1 0 -6.504 0v27.499l-5.099-5.099a3.155 3.155 0 0 0 -2.292-.963c-.831 0-1.665.312-2.315.963zm15.713 34.889a3.25 3.25 0 0 0 0-4.605l-10.665-10.642-2.292-2.314-2.289 2.314h-.025l-10.64 10.641a3.296 3.296 0 0 0 0 4.605 3.34 3.34 0 0 0 2.315.936c.833 0 1.667-.312 2.289-.936l5.099-5.102v27.5a3.255 3.255 0 0 0 3.252 3.252 3.253 3.253 0 0 0 3.252-3.252v-27.5l5.102 5.102a3.23 3.23 0 0 0 2.289.936c.83 0 1.663-.312 2.313-.935zm26.693 1.56c-.493 0-.988-.025-1.481-.133h-.028c-1.352-.154-2.652-.622-3.823-1.301l-3.772-2.131-.26.571-1.483 3.409a11.532 11.532 0 0 1 -10.59 6.946 12.32 12.32 0 0 1 -3.485-.521l-2.47-.78-1.666 1.977c-.65.755-1.353 1.458-2.135 2.056v9.131a22.923 22.923 0 0 0 6.402-4.345 20.17 20.17 0 0 0 3.354.287c6.375 0 12.257-3.15 15.847-8.247 1.793.572 3.693.885 5.592.885 10.226 0 18.549-8.272 18.627-18.471h-7.805c-.08 5.88-4.918 10.667-10.824 10.667z"/><path d="m123.574 69.737h-27.472l5.099-5.1c1.273-1.249 1.273-3.304 0-4.58a3.25 3.25 0 0 0 -2.316-.961c-.831 0-1.664.311-2.289.961l-10.641 10.64-2.314 2.292 2.314 2.314 10.641 10.641a3.269 3.269 0 0 0 2.289.963c.833 0 1.666-.341 2.316-.963a3.255 3.255 0 0 0 0-4.606l-5.099-5.097h27.472a3.237 3.237 0 0 0 3.252-3.252 3.236 3.236 0 0 0 -3.252-3.252z"/></g><path d="m3.79275 10.205q0-1.208.4246875-2.4065625.4246875-1.1985625 1.2363125-2.1423125.811625-.94375 2.00075-1.5383125 1.189125-.5945625 2.699125-.5945625 1.793125 0 3.0671875.811625 1.2740625.811625 1.8780625 2.114l-1.038125.64175q-.320875-.660625-.7833125-1.113625-.4624375-.453-.9909375-.736125-.5285-.283125-1.09475-.4058125-.56625-.1226875-1.113625-.1226875-1.208 0-2.132875.49075-.924875.49075-1.5571875 1.2835-.6323125.79275-.9531875 1.7836875-.320875.9909375-.320875 2.0101875 0 1.113625.3869375 2.132875.3869375 1.01925 1.057 1.8025625.6700625.7833125 1.5855 1.24575.9154375.4624375 1.9913125.4624375.56625 0 1.1608125-.1415625.5945625-.1415625 1.151375-.453.5568125-.3114375 1.0286875-.773875.471875-.4624375.79275-1.1230625l1.09475.56625q-.320875.755-.906 1.3306875-.585125.5756875-1.302375.9720625-.71725.396375-1.5194375.604-.8021875.207625-1.5760625.207625-1.377875 0-2.52925-.604-1.151375-.604-1.981875-1.5760625-.8305-.9720625-1.2929375-2.208375-.4624375-1.2363125-.4624375-2.5198125zm22.895375 6.795h-9.06v-13.40125h1.32125v12.231h7.73875zm6.493.094375q-1.39675 0-2.5575625-.5756875-1.1608125-.5756875-1.9913125-1.528875-.8305-.9531875-1.2835-2.1800625-.453-1.226875-.453-2.510375 0-1.340125.4813125-2.567.4813125-1.226875 1.3306875-2.170625.849375-.94375 2.00075-1.5005625 1.151375-.5568125 2.4915-.5568125 1.39675 0 2.5575625.5945625 1.1608125.5945625 1.981875 1.5571875.8210625.962625 1.2740625 2.1800625.453 1.2174375.453 2.4820625 0 1.340125-.4813125 2.567-.4813125 1.226875-1.32125 2.1611875-.8399375.9343125-1.9913125 1.491125-1.151375.5568125-2.4915.5568125zm-4.964125-6.795q0 1.09475.358625 2.1045625.358625 1.0098125 1.01925 1.793125.660625.7833125 1.566625 1.24575.906.4624375 2.019625.4624375 1.1325 0 2.057375-.49075.924875-.49075 1.566625-1.2835.64175-.79275.9909375-1.793125.3491875-1.000375.3491875-2.0385 0-1.09475-.3680625-2.1045625-.3680625-1.0098125-1.0286875-1.7836875-.660625-.773875-1.566625-1.2363125-.906-.4624375-2.00075-.4624375-1.1325 0-2.057375.4813125-.924875.4813125-1.566625 1.2740625-.64175.79275-.9909375 1.793125-.3491875 1.000375-.3491875 2.0385zm19.177 5.605875q1.264625 0 2.1045625-.4813125.8399375-.4813125 1.340125-1.264625.5001875-.7833125.698375-1.7836875.1981875-1.000375.1981875-2.019625v-6.75725h1.32125v6.75725q0 1.359-.302 2.5764375-.302 1.2174375-.9720625 2.1423125-.6700625.924875-1.7459375 1.47225-1.075875.547375-2.623625.547375-1.5855 0-2.6708125-.5756875-1.0853125-.5756875-1.7459375-1.5194375-.660625-.94375-.94375-2.15175-.283125-1.208-.283125-2.4915v-6.75725h1.302375v6.75725q0 1.057.207625 2.057375.207625 1.000375.7078125 1.77425.5001875.773875 1.3306875 1.24575.8305.471875 2.07625.471875zm13.3635 1.09475h-4.548875v-13.40125h4.548875q1.604375 0 2.8029375.5285 1.1985625.5285 2.00075 1.4345.8021875.906 1.208 2.1234375.4058125 1.2174375.4058125 2.5953125 0 1.528875-.453 2.7651875-.453 1.2363125-1.2929375 2.114-.8399375.8776875-2.019625 1.359-1.1796875.4813125-2.6519375.4813125zm5.09625-6.7195q0-1.208-.33975-2.2178125-.33975-1.0098125-.9909375-1.7459375-.6511875-.736125-1.5949375-1.1419375-.94375-.4058125-2.170625-.4058125h-3.227625v11.06075h3.227625q1.24575 0 2.1989375-.4246875.9531875-.4246875 1.5949375-1.17025.64175-.7455625.9720625-1.755375.3303125-1.0098125.3303125-2.1989375zm17.1385-5.228375-.64175 1.057q-.56625-.64175-1.51-1.038125-.94375-.396375-2.15175-.396375-1.77425 0-2.585875.6700625-.811625.6700625-.811625 1.8214375 0 .604.2170625.9909375.2170625.3869375.6700625.6700625.453.283125 1.1608125.49075.7078125.207625 1.6704375.41525 1.075875.2265 1.9346875.509625.8588125.283125 1.4628125.7078125.604.4246875.924875 1.0286875.320875.604.320875 1.51 0 .924875-.358625 1.604375-.358625.6795-1.000375 1.1325-.64175.453-1.528875.6700625-.887125.2170625-1.944125.2170625-3.114375 0-5.379375-1.944125l.660625-1.075875q.358625.3775.8588125.71725.5001875.33975 1.113625.5945625.6134375.2548125 1.3118125.396375.698375.1415625 1.47225.1415625 1.604375 0 2.5009375-.5756875.8965625-.5756875.8965625-1.7459375 0-.622875-.2548125-1.0475625-.2548125-.4246875-.7644375-.736125-.509625-.3114375-1.264625-.5379375-.755-.2265-1.755375-.453-1.057-.245375-1.84975-.509625-.79275-.26425-1.340125-.660625-.547375-.396375-.8210625-.9531875-.2736875-.5568125-.2736875-1.3684375 0-.924875.3491875-1.6515625.3491875-.7266875.9909375-1.208.64175-.4813125 1.51-.736125.86825-.2548125 1.92525-.2548125 1.340125 0 2.3876875.4058125 1.0475625.4058125 1.8969375 1.1419375zm4.3035 10.777625h7.682125v1.17025h-9.003375v-13.40125h8.8335v1.17025h-7.51225v4.832h6.549625v1.113625h-6.549625zm9.003375-5.62475q0-1.208.4246875-2.4065625.4246875-1.1985625 1.2363125-2.1423125.811625-.94375 2.00075-1.5383125 1.189125-.5945625 2.699125-.5945625 1.793125 0 3.0671875.811625 1.2740625.811625 1.8780625 2.114l-1.038125.64175q-.320875-.660625-.7833125-1.113625-.4624375-.453-.9909375-.736125-.5285-.283125-1.09475-.4058125-.56625-.1226875-1.113625-.1226875-1.208 0-2.132875.49075-.924875.49075-1.5571875 1.2835-.6323125.79275-.9531875 1.7836875-.320875.9909375-.320875 2.0101875 0 1.113625.3869375 2.132875.3869375 1.01925 1.057 1.8025625.6700625.7833125 1.5855 1.24575.9154375.4624375 1.9913125.4624375.56625 0 1.1608125-.1415625.5945625-.1415625 1.151375-.453.5568125-.3114375 1.0286875-.773875.471875-.4624375.79275-1.1230625l1.09475.56625q-.320875.755-.906 1.3306875-.585125.5756875-1.302375.9720625-.71725.396375-1.5194375.604-.8021875.207625-1.5760625.207625-1.377875 0-2.52925-.604-1.151375-.604-1.981875-1.5760625-.8305-.9720625-1.2929375-2.208375-.4624375-1.2363125-.4624375-2.5198125zm19.271375 5.70025q1.264625 0 2.1045625-.4813125.8399375-.4813125 1.340125-1.264625.5001875-.7833125.698375-1.7836875.1981875-1.000375.1981875-2.019625v-6.75725h1.32125v6.75725q0 1.359-.302 2.5764375-.302 1.2174375-.9720625 2.1423125-.6700625.924875-1.7459375 1.47225-1.075875.547375-2.623625.547375-1.5855 0-2.6708125-.5756875-1.0853125-.5756875-1.7459375-1.5194375-.660625-.94375-.94375-2.15175-.283125-1.208-.283125-2.4915v-6.75725h1.302375v6.75725q0 1.057.207625 2.057375.207625 1.000375.7078125 1.77425.5001875.773875 1.3306875 1.24575.8305.471875 2.07625.471875zm10.135875 1.09475h-1.32125v-13.40125h5.6625q.86825 0 1.5949375.3680625.7266875.3680625 1.2551875.962625.5285.5945625.8210625 1.3495625.2925625.755.2925625 1.528875 0 .736125-.2170625 1.4061875-.2170625.6700625-.604 1.208-.3869375.5379375-.9343125.906-.547375.3680625-1.226875.5001875l3.28425 5.17175h-1.491125l-3.152125-4.94525h-3.96375zm0-12.231v6.1155h4.379q.585125 0 1.0664375-.2548125.4813125-.2548125.8210625-.6889375.33975-.434125.5285-.9815.18875-.547375.18875-1.151375 0-.604-.2170625-1.1608125-.2170625-.5568125-.585125-.9720625-.3680625-.41525-.86825-.660625-.5001875-.245375-1.0475625-.245375zm12.325375 12.231h-1.32125v-13.40125h1.32125zm12.87275-13.40125v1.17025h-4.775375v12.231h-1.32125v-12.231h-4.775375v-1.17025zm.622875 0h1.453375l4.379 7.21025 4.41675-7.21025h1.4345l-5.190625 8.41825v4.983h-1.32125v-5.02075zm26.31175 1.453375-.64175 1.057q-.56625-.64175-1.51-1.038125-.94375-.396375-2.15175-.396375-1.77425 0-2.585875.6700625-.811625.6700625-.811625 1.8214375 0 .604.2170625.9909375.2170625.3869375.6700625.6700625.453.283125 1.1608125.49075.7078125.207625 1.6704375.41525 1.075875.2265 1.9346875.509625.8588125.283125 1.4628125.7078125.604.4246875.924875 1.0286875.320875.604.320875 1.51 0 .924875-.358625 1.604375-.358625.6795-1.000375 1.1325-.64175.453-1.528875.6700625-.887125.2170625-1.944125.2170625-3.114375 0-5.379375-1.944125l.660625-1.075875q.358625.3775.8588125.71725.5001875.33975 1.113625.5945625.6134375.2548125 1.3118125.396375.698375.1415625 1.47225.1415625 1.604375 0 2.5009375-.5756875.8965625-.5756875.8965625-1.7459375 0-.622875-.2548125-1.0475625-.2548125-.4246875-.7644375-.736125-.509625-.3114375-1.264625-.5379375-.755-.2265-1.755375-.453-1.057-.245375-1.84975-.509625-.79275-.26425-1.340125-.660625-.547375-.396375-.8210625-.9531875-.2736875-.5568125-.2736875-1.3684375 0-.924875.3491875-1.6515625.3491875-.7266875.9909375-1.208.64175-.4813125 1.51-.736125.86825-.2548125 1.92525-.2548125 1.340125 0 2.3876875.4058125 1.0475625.4058125 1.8969375 1.1419375zm4.3035 11.947875h-1.32125v-13.40125h1.32125zm16.553375 0h-1.32125v-11.004125l-4.888625 8.512625h-.773875l-4.888625-8.512625v11.004125h-1.32125v-13.40125h1.359l5.228375 9.17325 5.266125-9.17325h1.340125zm4.681 0h-1.32125v-13.40125h5.54925q.86825 0 1.5949375.3680625.7266875.3680625 1.2551875.962625.5285.5945625.8305 1.3495625.302.755.302 1.528875 0 .8305-.283125 1.5949375-.283125.7644375-.79275 1.3495625-.509625.585125-1.2174375.94375-.7078125.358625-1.5760625.358625h-4.34125zm0-12.231v6.1155h4.284625q.585125 0 1.0664375-.2548125.4813125-.2548125.8210625-.6795.33975-.4246875.5285-.9815.18875-.5568125.18875-1.1608125 0-.622875-.2170625-1.1796875-.2170625-.5568125-.585125-.9720625-.3680625-.41525-.86825-.6511875-.5001875-.2359375-1.0475625-.2359375zm19.479 12.231h-9.06v-13.40125h1.32125v12.231h7.73875zm3.265375 0h-1.32125v-13.40125h1.32125zm4.681 0h-1.32125v-13.40125h8.79575v1.17025h-7.4745v4.926375h6.30425v1.09475h-6.30425zm11.117375 0h-1.32125v-13.40125h1.32125zm4.681-1.17025h7.682125v1.17025h-9.003375v-13.40125h8.8335v1.17025h-7.51225v4.832h6.549625v1.113625h-6.549625zm14.7225 1.17025h-4.548875v-13.40125h4.548875q1.604375 0 2.8029375.5285 1.1985625.5285 2.00075 1.4345.8021875.906 1.208 2.1234375.4058125 1.2174375.4058125 2.5953125 0 1.528875-.453 2.7651875-.453 1.2363125-1.2929375 2.114-.8399375.8776875-2.019625 1.359-1.1796875.4813125-2.6519375.4813125zm5.09625-6.7195q0-1.208-.33975-2.2178125-.33975-1.0098125-.9909375-1.7459375-.6511875-.736125-1.5949375-1.1419375-.94375-.4058125-2.170625-.4058125h-3.227625v11.06075h3.227625q1.24575 0 2.1989375-.4246875.9531875-.4246875 1.5949375-1.17025.64175-.7455625.9720625-1.755375.3303125-1.0098125.3303125-2.1989375z" fill="#faac3a" transform="translate(457 387)"/></svg>
