<svg version="1.1" id="Layer_1" xmlns="http://www.w3.org/2000/svg" xmlns:xlink="http://www.w3.org/1999/xlink" x="0px" y="0px"
	 viewBox="0 0 1440 391.4" style="enable-background:new 0 0 1440 391.4;" xml:space="preserve" class = "logo">
<style type="text/css">
	.st0{fill:transparent;}
	.st1{fill:#FFFFFF;}
	.st2{fill:#F7AB39;}
</style>
<rect x="-0.3" y="-8" class="st0" width="1440" height="402.4"/>
<g>
	<path class="st1" d="M439.7,127.8c0,0,15.1-24.9-27.8-61.2c0,0,47.1,6.6,52.7,51.8c2.3,29.2-58.4,147.8-238.6,151.1
		c-25.9-0.9-52.7-7.1-53.2-61.2c0.5-34.3,38.6-58.3,60.7-59.3c0,0,24.8-74.2,106.4-73.9C421.5,75.4,439.7,127.8,439.7,127.8z"/>
	<path class="st2" d="M459.9,159.3c0,0,49.9,3.3,59.3,66.8c2.3,22.6-23.1,61.7-70.6,66.8h-80.9c0,0,52.7-36.2,68.2-59.3
		c0,0-71.1,65.4-149.6,64.5c-48.9,0-72.9-17.9-77.6-21.7C208.6,276.5,381.8,298.6,459.9,159.3z"/>
	<path class="st1" d="M586.1,260H583c-9.1,0-16.5-7.4-16.5-16.5v-99.8c0-9.1,7.4-16.5,16.5-16.5h3.1c9.1,0,16.5,7.4,16.5,16.5v99.8
		C602.5,252.6,595.2,260,586.1,260z"/>
	<path class="st1" d="M834.5,260h-3.1c-9.1,0-16.5-7.4-16.5-16.5V143.3c0-9.1,7.4-16.5,16.5-16.5h3.1c9.1,0,16.5,7.4,16.5,16.5
		v100.2C851,252.6,843.6,260,834.5,260z"/>
	<path class="st1" d="M901.6,260.6h-3.1c-9.1,0-16.5-7.4-16.5-16.5V143.9c0-9.1,7.4-16.5,16.5-16.5h3.1c9.1,0,16.5,7.4,16.5,16.5
		v100.2C918.1,253.3,910.7,260.6,901.6,260.6z"/>
	<path class="st1" d="M952.2,259.8h-3.1c-9.1,0-16.5-7.4-16.5-16.5V143.1c0-9.1,7.4-16.5,16.5-16.5h3.1c9.1,0,16.5,7.4,16.5,16.5
		v100.2C968.7,252.4,961.3,259.8,952.2,259.8z"/>
	<path class="st1" d="M932.7,145.9v-3.1c0-9.1,7.4-16.5,16.5-16.5h64.7c9.1,0,16.5,7.4,16.5,16.5v3.1c0,9.1-7.4,16.5-16.5,16.5
		h-64.7C940,162.3,932.7,155,932.7,145.9z"/>
	<path class="st1" d="M1149.6,145.9v-3.1c0-9.1,7.4-16.5,16.5-16.5h64.7c9.1,0,16.5,7.4,16.5,16.5v3.1c0,9.1-7.4,16.5-16.5,16.5
		h-64.7C1157,162.3,1149.6,155,1149.6,145.9z"/>
	<path class="st1" d="M932.7,244.2v-3.1c0-9.1,7.4-16.5,16.5-16.5h64.7c9.1,0,16.5,7.4,16.5,16.5v3.1c0,9.1-7.4,16.5-16.5,16.5
		h-64.7C940,260.6,932.7,253.3,932.7,244.2z"/>
	<path class="st1" d="M938.7,194.7v-3.1c0-9.1,7.4-16.5,16.5-16.5h48.8c9.1,0,16.5,7.4,16.5,16.5v3.1c0,9.1-7.4,16.5-16.5,16.5
		h-48.8C946,211.2,938.7,203.8,938.7,194.7z"/>
	<path class="st1" d="M908.4,254l-2.5,1.7c-7.5,5.1-17.8,3.1-22.9-4.4L820.8,159c-5.1-7.5-3.1-17.8,4.4-22.9l2.5-1.7
		c7.5-5.1,17.8-3.1,22.9,4.4l62.3,92.3C918,238.7,916,248.9,908.4,254z"/>
	<path class="st1" d="M577.6,225.4l-2.3-2c-6.8-6-7.4-16.5-1.3-23.3l60.9-68.3c6-6.8,16.5-7.4,23.3-1.3l2.3,2
		c6.8,6,7.4,16.5,1.3,23.3l-60.9,68.3C594.8,230.9,584.4,231.5,577.6,225.4z"/>
	<path class="st1" d="M602.5,183.8l2.5-1.8c7.3-5.4,17.6-3.9,23,3.4l35.8,48.1c5.4,7.3,3.9,17.6-3.4,23l-2.5,1.8
		c-7.3,5.4-17.6,3.9-23-3.4l-35.8-48.1C593.7,199.6,595.2,189.3,602.5,183.8z"/>
	<path class="st1" d="M1064.1,259.6h-3.1c-9.1,0-16.5-7.4-16.5-16.5v-99.8c0-9.1,7.4-16.5,16.5-16.5h3.1c9.1,0,16.5,7.4,16.5,16.5
		v99.8C1080.6,252.3,1073.2,259.6,1064.1,259.6z"/>
	<path class="st1" d="M1201.5,259.5h-3.1c-9.1,0-16.5-7.4-16.5-16.5v-99.8c0-9.1,7.4-16.5,16.5-16.5h3.1c9.1,0,16.5,7.4,16.5,16.5
		V243C1218,252.1,1210.6,259.5,1201.5,259.5z"/>
	<path class="st1" d="M1279.2,259.5h-3.1c-9.1,0-16.5-7.4-16.5-16.5v-99.8c0-9.1,7.4-16.5,16.5-16.5h3.1c9.1,0,16.5,7.4,16.5,16.5
		V243C1295.7,252.1,1288.3,259.5,1279.2,259.5z"/>
	<path class="st1" d="M1055.6,225.1l-2.3-2c-6.8-6-7.4-16.5-1.3-23.3l60.9-68.3c6.1-6.8,16.5-7.4,23.3-1.3l2.3,2
		c6.8,6,7.4,16.5,1.3,23.3l-60.9,68.3C1072.8,230.5,1062.4,231.1,1055.6,225.1z"/>
	<path class="st1" d="M1080.6,183.5l2.4-1.8c7.3-5.4,17.6-3.9,23.1,3.4l35.8,48.1c5.4,7.3,3.9,17.6-3.4,23l-2.4,1.8
		c-7.3,5.4-17.6,3.9-23.1-3.4l-35.8-48.1C1071.8,199.2,1073.3,188.9,1080.6,183.5z"/>
	<path class="st1" d="M735.7,125.2c-37.6,0-68,30.4-68,68s30.4,68,68,68s68-30.4,68-68S773.3,125.2,735.7,125.2z M736.2,223.8
		c-16.6,0-30.1-13.3-30.1-29.7s13.5-29.7,30.1-29.7s30.1,13.3,30.1,29.7S752.8,223.8,736.2,223.8z"/>
</g>
</svg>
