<svg width="160" height="160" viewBox="0 0 160 160" fill="none" xmlns="http://www.w3.org/2000/svg">
<circle cx="80" cy="80" r="80" fill="#56CCF2"/>
<path fill-rule="evenodd" clip-rule="evenodd" d="M86.2013 37.2823C86.8017 37.3707 87.3979 37.4722 87.9894 37.5867C87.3645 34.3201 84.4924 31.8514 81.0436 31.8514C77.6911 31.8514 74.8834 34.1842 74.1553 37.3151C74.2282 37.304 74.301 37.2931 74.374 37.2823L74.5923 38.7664L74.8106 40.2504C74.5789 40.2845 74.3478 40.3207 74.1175 40.359C74.781 43.5763 77.6298 45.9952 81.0436 45.9952C84.3608 45.9952 87.1446 43.7113 87.9081 40.6301C87.2009 40.4833 86.4862 40.3565 85.7647 40.2504L85.983 38.7664L86.2013 37.2823ZM70.8585 39.5051L71.0753 40.3736C71.7784 45.249 75.9735 48.9952 81.0436 48.9952C86.6062 48.9952 91.1155 44.4859 91.1155 38.9233C91.1155 33.3607 86.6062 28.8514 81.0436 28.8514C75.8188 28.8514 71.5233 32.8297 71.0208 37.9223C70.8451 37.9636 70.6698 38.0061 70.495 38.0498L70.8585 39.5051ZM50.0719 108.51C53.9776 108.51 57.1438 105.344 57.1438 101.438C57.1438 97.5327 53.9776 94.3665 50.0719 94.3665C46.1662 94.3665 43 97.5327 43 101.438C43 105.344 46.1662 108.51 50.0719 108.51ZM50.0719 111.51C52.5354 111.51 54.7924 110.626 56.5425 109.157L56.2873 109.501C57.3439 110.286 58.4404 111.02 59.573 111.7L60.3454 110.415L61.1177 109.129C60.1477 108.546 59.2062 107.92 58.2959 107.254C59.4598 105.612 60.1438 103.605 60.1438 101.438C60.1438 95.8758 55.6345 91.3665 50.0719 91.3665C48.68 91.3665 47.3539 91.6488 46.148 92.1594C45.7939 91.3557 45.4673 90.5371 45.1695 89.7049L43.7572 90.2103L42.3449 90.7157C42.7135 91.7456 43.1227 92.7561 43.5708 93.7453C41.3867 95.5928 40 98.3536 40 101.438C40 107.001 44.5093 111.51 50.0719 111.51ZM110.129 109.853C114.035 109.853 117.201 106.687 117.201 102.781C117.201 98.8756 114.035 95.7094 110.129 95.7094C106.224 95.7094 103.057 98.8756 103.057 102.781C103.057 106.687 106.224 109.853 110.129 109.853ZM110.129 112.853C115.692 112.853 120.201 108.344 120.201 102.781C120.201 97.2188 115.692 92.7094 110.129 92.7094C104.567 92.7094 100.057 97.2188 100.057 102.781C100.057 104.633 100.557 106.368 101.429 107.859C100.786 108.302 100.129 108.726 99.4576 109.129L100.23 110.415L101.002 111.7C101.792 111.226 102.564 110.726 103.317 110.2C105.11 111.847 107.502 112.853 110.129 112.853ZM120.528 79.1167L119.029 79.0442L117.531 78.9718C117.56 78.3648 117.575 77.7538 117.575 77.139C117.575 76.5243 117.56 75.9132 117.531 75.3062L119.029 75.2338L120.528 75.1614C120.559 75.8166 120.575 76.4759 120.575 77.139C120.575 77.8021 120.559 78.4614 120.528 79.1167ZM120.144 71.2254L118.66 71.4437L117.176 71.662C116.997 70.4453 116.76 69.2481 116.466 68.0732L117.922 67.7098L119.377 67.3464C119.694 68.6166 119.951 69.9107 120.144 71.2254ZM118.23 63.5623L116.818 64.0677L115.406 64.5731C114.993 63.4197 114.525 62.2924 114.005 61.1944L115.36 60.5522L116.716 59.9099C117.278 61.0967 117.784 62.3153 118.23 63.5623ZM114.849 56.4244L113.563 57.1967L112.277 57.9691C111.648 56.9208 110.968 55.9059 110.241 54.9276L111.445 54.0331L112.649 53.1387C113.434 54.1953 114.169 55.2918 114.849 56.4244ZM110.139 50.0835C109.253 49.1066 108.32 48.1734 107.343 47.2875L106.336 48.3986L105.328 49.5097C106.232 50.3301 107.097 51.1942 107.917 52.0988L109.028 51.0911L110.139 50.0835ZM104.288 44.7773L103.394 45.9814L102.499 47.1856C101.521 46.4588 100.506 45.779 99.4576 45.1494L100.23 43.8635L101.002 42.5776C102.135 43.258 103.231 43.9924 104.288 44.7773ZM97.5167 40.7108L96.8745 42.0664L96.2322 43.4219C95.1343 42.9017 94.007 42.4336 92.8535 42.0209L93.359 40.6086L93.8644 39.1963C95.1114 39.6425 96.33 40.1485 97.5167 40.7108ZM82.2653 36.8991L82.1929 38.3973L82.1204 39.8956C81.5134 39.8662 80.9024 39.8514 80.2876 39.8514C79.6729 39.8514 79.0618 39.8662 78.4548 39.8956L78.3824 38.3973L78.31 36.8991C78.9652 36.8674 79.6246 36.8514 80.2876 36.8514C80.9507 36.8514 81.6101 36.8674 82.2653 36.8991ZM66.7109 39.1963L67.2163 40.6086L67.7217 42.0209C66.5683 42.4336 65.441 42.9017 64.343 43.4219L63.7008 42.0664L63.0585 40.7108C64.2453 40.1485 65.4639 39.6425 66.7109 39.1963ZM59.573 42.5776L60.3454 43.8635L61.1177 45.1494C60.0694 45.779 59.0545 46.4588 58.0762 47.1856L57.1818 45.9814L56.2873 44.7773C57.3439 43.9924 58.4404 43.258 59.573 42.5776ZM53.2321 47.2875L54.2398 48.3986L55.2474 49.5097C54.3428 50.3301 53.4787 51.1942 52.6583 52.0988L51.5472 51.0911L50.4361 50.0835C51.322 49.1066 52.2552 48.1734 53.2321 47.2875ZM47.9259 53.1387L49.13 54.0331L50.3342 54.9276C49.6075 55.9059 48.9277 56.9208 48.298 57.9691L47.0121 57.1967L45.7263 56.4244C46.4066 55.2918 47.141 54.1953 47.9259 53.1387ZM43.8594 59.9099L45.215 60.5522L46.5705 61.1944C46.0503 62.2924 45.5823 63.4197 45.1695 64.5731L43.7572 64.0677L42.3449 63.5623C42.7912 62.3153 43.2972 61.0967 43.8594 59.9099ZM41.1984 67.3464L42.6537 67.7098L44.109 68.0732C43.8157 69.2481 43.578 70.4453 43.399 71.662L41.915 71.4437L40.431 71.2254C40.6243 69.9107 40.8812 68.6166 41.1984 67.3464ZM40.0477 75.1614C40.016 75.8166 40 76.4759 40 77.139C40 77.8021 40.016 78.4614 40.0477 79.1167L41.5459 79.0442L43.0442 78.9718C43.0149 78.3648 43 77.7538 43 77.139C43 76.5243 43.0149 75.9132 43.0442 75.3062L41.5459 75.2338L40.0477 75.1614ZM40.431 83.0527L41.915 82.8344L43.399 82.6161C43.578 83.8327 43.8157 85.0299 44.109 86.2048L42.6537 86.5682L41.1984 86.9316C40.8812 85.6614 40.6243 84.3674 40.431 83.0527ZM45.7263 97.8537L47.0121 97.0813L48.298 96.3089C48.9277 97.3572 49.6075 98.3721 50.3342 99.3504L49.13 100.245L47.9259 101.139C47.141 100.083 46.4066 98.9863 45.7263 97.8537ZM50.4361 104.195L51.5472 103.187L52.6583 102.179C53.4787 103.084 54.3428 103.948 55.2474 104.768L54.2398 105.879L53.2321 106.991C52.2552 106.105 51.322 105.171 50.4361 104.195ZM63.0585 113.567L63.7008 112.212L64.343 110.856C65.441 111.376 66.5683 111.844 67.7217 112.257L67.2163 113.669L66.7109 115.082C65.4639 114.635 64.2453 114.13 63.0585 113.567ZM70.495 116.228L70.8585 114.773L71.2219 113.318C72.3967 113.611 73.594 113.849 74.8106 114.028L74.5923 115.512L74.374 116.996C73.0593 116.802 71.7652 116.545 70.495 116.228ZM78.31 117.379L78.3824 115.881L78.4548 114.382C79.0618 114.412 79.6729 114.427 80.2876 114.427C80.9024 114.427 81.5134 114.412 82.1204 114.382L82.1929 115.881L82.2653 117.379C81.6101 117.411 80.9507 117.427 80.2876 117.427C79.6246 117.427 78.9652 117.411 78.31 117.379ZM86.2013 116.996L85.983 115.512L85.7647 114.028C86.9813 113.849 88.1785 113.611 89.3534 113.318L89.7168 114.773L90.0802 116.228C88.81 116.545 87.516 116.802 86.2013 116.996ZM93.8644 115.082L93.359 113.669L92.8535 112.257C94.007 111.844 95.1343 111.376 96.2322 110.856L96.8745 112.212L97.5167 113.567C96.33 114.13 95.1114 114.635 93.8644 115.082ZM107.343 106.991L106.336 105.879L105.328 104.768C106.232 103.948 107.097 103.084 107.917 102.179L109.028 103.187L110.139 104.195C109.253 105.171 108.32 106.105 107.343 106.991ZM112.649 101.139L111.445 100.245L110.241 99.3504C110.968 98.3721 111.648 97.3572 112.277 96.3089L113.563 97.0813L114.849 97.8537C114.169 98.9863 113.434 100.083 112.649 101.139ZM116.716 94.3681L115.36 93.7259L114.005 93.0836C114.525 91.9857 114.993 90.8584 115.406 89.7049L116.818 90.2103L118.23 90.7157C117.784 91.9628 117.278 93.1814 116.716 94.3681ZM119.377 86.9316L117.922 86.5682L116.466 86.2048C116.76 85.0299 116.997 83.8327 117.176 82.6161L118.66 82.8344L120.144 83.0527C119.951 84.3674 119.694 85.6614 119.377 86.9316ZM80.871 54.42L79.6991 53.5439L78.6089 54.5198C75.811 57.0245 73.4651 58.727 70.7752 60.0947C68.0693 61.4705 64.9441 62.544 60.5401 63.7167L59.2129 64.0701V65.4437V85.3956V85.9613L59.5383 86.424C65.8421 95.3842 70.2205 99.3565 78.8298 104.929L79.8032 105.56L80.7753 104.927C90.8186 98.3948 95.3943 94.3142 100.139 86.3067L100.389 85.8854V85.3956V64.2926V62.8186L98.9419 62.5381C95.0424 61.7821 92.1723 60.9641 89.4789 59.7529C86.7817 58.54 84.1871 56.8993 80.871 54.42ZM72.3951 63.2808C75.0598 61.926 77.3835 60.2968 79.898 58.1426C82.8108 60.254 85.3333 61.8077 88.0129 63.0127C90.6768 64.2107 93.4386 65.0382 96.8146 65.754V84.9024C92.6945 91.7393 88.7193 95.422 79.7997 101.294C72.3371 96.3807 68.3931 92.7247 62.7871 84.8279V66.8095C66.6442 65.7361 69.6694 64.6667 72.3951 63.2808Z" fill="white"/>
</svg>
