<svg width="239" height="240" viewBox="0 0 239 240" fill="none" xmlns="http://www.w3.org/2000/svg">
<circle cx="119.519" cy="119.866" r="119.143" fill="#56CCF2"/>
<path d="M143.04 118.147H103.201C92.2415 139.389 88.7155 151.44 87.265 173.198H158.251C163.621 171.807 155.571 137.939 143.04 118.147Z" stroke="white" stroke-width="5.95716"/>
<circle cx="123.482" cy="92.7952" r="22.3735" stroke="white" stroke-width="5.95716"/>
<path d="M78.1179 101.717H51.1882C43.7803 116.076 41.3968 124.222 40.4164 138.929H88.4001C92.0301 137.989 86.5886 115.096 78.1179 101.717Z" stroke="white" stroke-width="4.76573"/>
<circle cx="64.8979" cy="84.5802" r="14.7542" stroke="white" stroke-width="4.76573"/>
<path d="M195.644 100.526H168.714C161.306 114.884 158.923 123.03 157.943 137.738H205.926C209.556 136.798 204.115 113.904 195.644 100.526Z" stroke="white" stroke-width="4.76573"/>
<circle cx="182.424" cy="83.3887" r="14.7542" stroke="white" stroke-width="4.76573"/>
</svg>
