<svg width="238" height="238" viewBox="0 0 238 238" fill="none" xmlns="http://www.w3.org/2000/svg">
<circle cx="119" cy="119" r="119" fill="#56CCF2"/>
<path fill-rule="evenodd" clip-rule="evenodd" d="M84.014 148.75H96.866V141.759C102.1 140.827 106.946 138.777 111.151 135.865L116.11 140.825L125.198 131.737L120.266 126.805C123.247 122.558 125.343 117.646 126.289 112.336H133.28V99.484H126.289C125.35 94.2119 123.277 89.3325 120.331 85.1071L125.198 80.2397L116.11 71.152L111.243 76.0193C107.017 73.0731 102.138 70.9999 96.866 70.0612V63.07H84.014V70.0612C78.7036 71.0067 73.7915 73.1033 69.545 76.0838L64.6131 71.152L55.5254 80.2397L60.4851 85.1994C57.573 89.4035 55.523 94.2503 54.5912 99.484H47.6V112.336H54.5912C55.5299 117.608 57.6031 122.488 60.5493 126.713L55.5254 131.737L64.6131 140.825L69.6371 135.801C73.8625 138.747 78.7419 140.82 84.014 141.759V148.75ZM90.4399 75.922C107.002 75.922 120.428 89.3481 120.428 105.91C120.428 122.472 107.002 135.898 90.4399 135.898C73.878 135.898 60.4519 122.472 60.4519 105.91C60.4519 89.3481 73.878 75.922 90.4399 75.922Z" fill="white"/>
<path fill-rule="evenodd" clip-rule="evenodd" d="M149.553 178.5H158.657V173.548C162.364 172.888 165.797 171.436 168.775 169.373L172.288 172.886L178.725 166.449L175.232 162.956C177.343 159.948 178.828 156.468 179.498 152.707H184.45V143.603H179.498C178.833 139.869 177.364 136.413 175.278 133.42L178.725 129.972L172.288 123.535L168.84 126.982C165.847 124.896 162.391 123.427 158.657 122.762V117.81H149.553V122.762C145.792 123.432 142.312 124.917 139.304 127.028L135.811 123.535L129.374 129.972L132.887 133.485C130.824 136.463 129.372 139.896 128.712 143.603H123.76V152.707H128.712C129.377 156.441 130.846 159.897 132.932 162.89L129.374 166.449L135.811 172.886L139.37 169.328C142.363 171.414 145.819 172.883 149.553 173.548V178.5ZM154.105 126.913C165.836 126.913 175.346 136.424 175.346 148.155C175.346 159.886 165.836 169.396 154.105 169.396C142.374 169.396 132.863 159.886 132.863 148.155C132.863 136.424 142.374 126.913 154.105 126.913Z" fill="white"/>
</svg>
