<?xml version="1.0" encoding="utf-8"?>
<!-- Generator: Adobe Illustrator 22.0.0, SVG Export Plug-In . SVG Version: 6.00 Build 0)  -->
<svg version="1.1" id="Layer_1" xmlns="http://www.w3.org/2000/svg" xmlns:xlink="http://www.w3.org/1999/xlink" x="0px" y="0px"
	 viewBox="0 0 572 572" style="enable-background:new 0 0 572 572;" xml:space="preserve">
<style type="text/css">
	.st0{fill:#1A9AD6;}
	.st1{fill:#FFFFFF;}
</style>
<g>
	<g>
		<path class="st0" d="M304.7,145.1c-14.5,0-26.7,3.4-30.9,8.4c-8.5,2.1-13.4,5.6-14.4,9.1c-0.1,0.2-0.2,0.4-0.2,0.6v48
			c0,0.2,0.1,0.4,0.2,0.6c1.5,6.4,15.2,11.1,32.3,11.1c14.6,0,26.7-3.5,30.9-8.5c8.3-2,13.4-5.3,14.4-9.1c0.1-0.2,0.2-0.4,0.2-0.6
			v-47.3C337.1,151.5,325.7,145.1,304.7,145.1L304.7,145.1z M321.3,196.2c-0.1,0.1-0.1,0.3-0.2,0.4c-0.1,0.2-0.2,0.3-0.3,0.5
			c-0.1,0.1-0.2,0.2-0.3,0.4c-0.1,0.2-0.3,0.3-0.5,0.5c-0.1,0.1-0.2,0.2-0.3,0.3c-0.2,0.2-0.4,0.4-0.7,0.6c-0.1,0.1-0.2,0.2-0.3,0.2
			c-0.3,0.2-0.6,0.4-0.9,0.6c-0.1,0.1-0.2,0.1-0.3,0.2c-0.4,0.2-0.8,0.4-1.2,0.6c-0.1,0-0.1,0.1-0.2,0.1c-0.5,0.2-1,0.5-1.5,0.7
			c0,0,0,0-0.1,0c-2.9,1.2-6.7,2.2-11.1,2.8c0,0,0,0-0.1,0c-0.8,0.1-1.7,0.2-2.6,0.3c-0.1,0-0.3,0-0.4,0c-0.8,0.1-1.6,0.2-2.4,0.2
			c-0.4,0-0.8,0-1.1,0.1c-0.6,0-1.2,0.1-1.9,0.1c-1,0-2.1,0.1-3.2,0.1c-1.1,0-2.1,0-3.2-0.1c-0.6,0-1.2-0.1-1.9-0.1
			c-0.4,0-0.8,0-1.1-0.1c-0.8-0.1-1.6-0.1-2.4-0.2c-0.1,0-0.3,0-0.5,0c-0.9-0.1-1.8-0.2-2.6-0.3c0,0,0,0-0.1,0
			c-4.4-0.6-8.2-1.6-11.1-2.8c0,0,0,0-0.1,0c-0.5-0.2-1.1-0.4-1.5-0.7c-0.1,0-0.1-0.1-0.2-0.1c-0.4-0.2-0.8-0.4-1.2-0.6
			c-0.1-0.1-0.2-0.1-0.3-0.2c-0.3-0.2-0.6-0.4-0.9-0.6c-0.1-0.1-0.2-0.2-0.3-0.2c-0.2-0.2-0.5-0.4-0.7-0.6c-0.1-0.1-0.2-0.2-0.3-0.3
			c-0.2-0.2-0.3-0.3-0.5-0.5c-0.1-0.1-0.2-0.2-0.3-0.4c-0.1-0.2-0.2-0.3-0.3-0.5c-0.1-0.1-0.1-0.3-0.2-0.4c-0.1-0.2-0.1-0.3-0.1-0.5
			c-0.1-0.2-0.1-0.4-0.1-0.6c0-0.1,0-0.3,0-0.4c0-0.2,0-0.4,0-0.6v-9.6c0,0,0.1,0.1,0.1,0.1c0.3,0.2,0.6,0.5,0.9,0.7
			c4.9,3.7,14.7,6.6,28.8,6.6c14.1,0,23.8-2.9,28.8-6.5c0.4-0.3,0.7-0.6,1.1-0.9v9.6c-0.1,0.2-0.1,0.4,0,0.6c0,0.1,0,0.3,0,0.4
			c0,0.2-0.1,0.4-0.1,0.6C321.4,195.8,321.3,196,321.3,196.2L321.3,196.2z M262.6,169.5c0.4,0.3,0.8,0.6,1.3,0.9
			c0.1,0.1,0.2,0.1,0.3,0.2c0.4,0.2,0.8,0.5,1.2,0.7c0.2,0.1,0.3,0.2,0.5,0.3c0.5,0.2,1,0.5,1.5,0.7c0.1,0,0.2,0.1,0.3,0.1
			c0.6,0.3,1.3,0.5,1.9,0.7c0.2,0.1,0.4,0.1,0.6,0.2c0.5,0.2,1.1,0.4,1.7,0.5c0.2,0.1,0.4,0.1,0.6,0.2c0.8,0.2,1.5,0.4,2.4,0.6
			c0.1,0,0.2,0.1,0.3,0.1c0.7,0.2,1.5,0.3,2.3,0.4c0.3,0,0.5,0.1,0.8,0.1c0.7,0.1,1.5,0.2,2.3,0.3c0.2,0,0.4,0.1,0.6,0.1
			c1,0.1,2,0.2,3,0.3c0.3,0,0.5,0,0.8,0.1c0.8,0.1,1.7,0.1,2.5,0.2c0.3,0,0.6,0,0.9,0c1.1,0,2.3,0.1,3.4,0.1c1.2,0,2.3,0,3.4-0.1
			c0.3,0,0.6,0,0.9,0c0.9,0,1.7-0.1,2.5-0.2c0.3,0,0.5,0,0.8-0.1c1-0.1,2-0.2,3-0.3c0.2,0,0.4-0.1,0.6-0.1c0.8-0.1,1.5-0.2,2.3-0.3
			c0.3,0,0.5-0.1,0.8-0.1c0.8-0.1,1.5-0.3,2.2-0.4c0.1,0,0.2-0.1,0.3-0.1c0.8-0.2,1.6-0.4,2.4-0.6c0.2-0.1,0.4-0.1,0.6-0.2
			c0.6-0.2,1.1-0.3,1.7-0.5c0.2-0.1,0.4-0.1,0.6-0.2c0.7-0.2,1.3-0.5,1.9-0.7c0.1,0,0.2-0.1,0.2-0.1c0.5-0.2,1-0.5,1.5-0.7
			c0.2-0.1,0.3-0.2,0.5-0.3c0.4-0.2,0.8-0.5,1.2-0.7c0.1-0.1,0.2-0.1,0.3-0.2c0.5-0.3,0.9-0.6,1.3-0.9c0.1-0.1,0.2-0.2,0.3-0.2
			c0.2-0.1,0.3-0.3,0.5-0.4v9.6c-0.1,0.2-0.1,0.4,0,0.6c0,0.1,0,0.3,0,0.4c0,0.2-0.1,0.4-0.1,0.6c0,0.2-0.1,0.3-0.2,0.5
			c-0.1,0.1-0.1,0.3-0.2,0.4c-0.1,0.2-0.2,0.3-0.3,0.5c-0.1,0.1-0.2,0.2-0.3,0.4c-0.1,0.2-0.3,0.3-0.5,0.5c-0.1,0.1-0.2,0.2-0.3,0.3
			c-0.2,0.2-0.4,0.4-0.7,0.6c-0.1,0.1-0.2,0.2-0.3,0.2c-0.3,0.2-0.6,0.4-0.9,0.6c-0.1,0.1-0.2,0.1-0.3,0.2c-0.4,0.2-0.8,0.4-1.2,0.6
			c-0.1,0-0.1,0.1-0.2,0.1c-0.5,0.2-1,0.5-1.5,0.7c0,0,0,0-0.1,0c-2.9,1.2-6.7,2.2-11.1,2.8c0,0,0,0-0.1,0c-0.8,0.1-1.7,0.2-2.6,0.3
			c-0.1,0-0.3,0-0.4,0c-0.8,0.1-1.6,0.2-2.4,0.2c-0.4,0-0.8,0-1.1,0.1c-0.6,0-1.2,0.1-1.9,0.1c-1,0-2.1,0.1-3.2,0.1
			c-1.1,0-2.1,0-3.2-0.1c-0.6,0-1.2-0.1-1.9-0.1c-0.4,0-0.8,0-1.1-0.1c-0.8-0.1-1.6-0.1-2.4-0.2c-0.1,0-0.3,0-0.5,0
			c-0.9-0.1-1.8-0.2-2.6-0.3c0,0,0,0-0.1,0c-4.4-0.6-8.2-1.6-11.1-2.8c0,0,0,0-0.1,0c-0.5-0.2-1.1-0.4-1.5-0.7
			c-0.1,0-0.1-0.1-0.2-0.1c-0.4-0.2-0.8-0.4-1.2-0.6c-0.1-0.1-0.2-0.1-0.3-0.2c-0.3-0.2-0.6-0.4-0.9-0.6c-0.1-0.1-0.2-0.2-0.3-0.2
			c-0.2-0.2-0.5-0.4-0.7-0.6c-0.1-0.1-0.2-0.2-0.3-0.3c-0.2-0.2-0.3-0.3-0.5-0.5c-0.1-0.1-0.2-0.2-0.3-0.4c-0.1-0.2-0.2-0.3-0.3-0.5
			c-0.1-0.1-0.1-0.3-0.2-0.4c-0.1-0.2-0.1-0.3-0.1-0.5c-0.1-0.2-0.1-0.4-0.1-0.6c0-0.1,0-0.3,0-0.4c0-0.2,0-0.4,0-0.6v-9.6
			c0.2,0.1,0.3,0.3,0.5,0.4C262.5,169.3,262.5,169.4,262.6,169.5L262.6,169.5z M324.1,195.8V183c0.1,0,0.1,0,0.2,0
			c0.5-0.1,1-0.3,1.5-0.5c0,0,0,0,0,0c3.8-1.2,6.8-2.7,8.7-4.4v10.6c0,0.2,0,0.3,0,0.4c0,0.1-0.1,0.3-0.1,0.4c0,0,0,0.1,0,0.1
			c0,0.1-0.1,0.3-0.2,0.4c0,0,0,0,0,0.1c-1.1,2.1-4.5,4.2-9.4,5.7C324.5,195.7,324.3,195.8,324.1,195.8L324.1,195.8z M334.5,162.4
			V173c0,0.2,0,0.3,0,0.5c0,0.1-0.1,0.2-0.1,0.4c0,0,0,0.1,0,0.1c0,0.1-0.1,0.3-0.2,0.4c0,0,0,0,0,0.1c-1.1,2.1-4.5,4.1-9.4,5.7
			c-0.2,0.1-0.4,0.1-0.6,0.2v-12.9c0.1,0,0.2-0.1,0.3-0.1c0.3-0.1,0.6-0.2,0.9-0.3c0.2-0.1,0.5-0.1,0.7-0.2c0.3-0.1,0.6-0.2,0.9-0.3
			c0.2-0.1,0.4-0.2,0.6-0.2c0.3-0.1,0.6-0.2,0.9-0.3c0.2-0.1,0.4-0.1,0.5-0.2c0.3-0.1,0.6-0.3,1-0.4c0.1-0.1,0.2-0.1,0.3-0.2
			c0.4-0.2,0.8-0.4,1.2-0.6c0,0,0.1-0.1,0.1-0.1c0.3-0.2,0.7-0.4,1-0.6c0.1-0.1,0.2-0.1,0.3-0.2c0.2-0.2,0.5-0.3,0.7-0.5
			c0.1-0.1,0.2-0.2,0.3-0.3c0.2-0.1,0.4-0.3,0.5-0.4C334.4,162.5,334.5,162.5,334.5,162.4L334.5,162.4z M304.7,147.7
			c17.6,0,29.8,5.1,29.8,9.7c0,0.2,0,0.3-0.1,0.5c0,0.1,0,0.1,0,0.2c0,0.1-0.1,0.2-0.1,0.3c0,0.1-0.1,0.1-0.1,0.2
			c0,0.1-0.1,0.2-0.2,0.3c0,0.1-0.1,0.1-0.1,0.2c-0.1,0.1-0.1,0.2-0.2,0.3c-0.1,0.1-0.1,0.1-0.2,0.2c-0.1,0.1-0.2,0.2-0.3,0.3
			c-0.1,0.1-0.1,0.1-0.2,0.2c-0.1,0.1-0.2,0.2-0.3,0.3c-0.1,0.1-0.2,0.1-0.3,0.2c-0.1,0.1-0.2,0.2-0.4,0.3c-0.1,0.1-0.2,0.1-0.3,0.2
			c-0.1,0.1-0.3,0.2-0.4,0.3c-0.1,0.1-0.2,0.1-0.3,0.2c-0.1,0.1-0.3,0.2-0.5,0.3c-0.1,0.1-0.2,0.1-0.3,0.2c-0.2,0.1-0.4,0.2-0.5,0.3
			c-0.1,0.1-0.2,0.1-0.3,0.2c-0.2,0.1-0.4,0.2-0.6,0.3c-0.1,0.1-0.2,0.1-0.3,0.2c-0.3,0.1-0.6,0.2-0.9,0.4c-0.1,0-0.1,0-0.2,0.1
			c-0.4,0.1-0.7,0.3-1.1,0.4c-0.1,0-0.2,0.1-0.3,0.1c-0.3,0.1-0.6,0.2-0.8,0.3c-0.1,0.1-0.3,0.1-0.5,0.1c-0.2,0.1-0.4,0.1-0.6,0.2
			v-1.4c0-0.1,0-0.3-0.1-0.4c0-0.1,0-0.1-0.1-0.1c0,0,0,0,0,0c-0.4-1.5-1.5-3-3.1-4.3c0,0,0,0,0,0c-0.2-0.2-0.5-0.4-0.8-0.5
			c-4.6-3.3-13.1-5.8-25.1-6.2c-1.1,0-2.2-0.1-3.3-0.1c-1.1,0-2.2,0-3.3,0.1c-3.2,0.1-6.2,0.4-8.9,0.8
			C284.5,149.8,293.3,147.7,304.7,147.7L304.7,147.7z M276.8,155.6c0.3-0.1,0.7-0.1,1-0.2c0.4-0.1,0.9-0.2,1.3-0.2
			c0.4-0.1,0.8-0.1,1.2-0.2c0.4-0.1,0.9-0.1,1.3-0.2c0.4,0,0.8-0.1,1.2-0.1c0.8-0.1,1.6-0.2,2.4-0.2c0.3,0,0.6,0,0.9-0.1
			c0.6,0,1.3-0.1,1.9-0.1c0.3,0,0.6,0,0.9,0c0.9,0,1.9-0.1,2.8-0.1c1.1,0,2.1,0,3.2,0.1c0.6,0,1.2,0.1,1.8,0.1c0.4,0,0.8,0,1.2,0.1
			c0.8,0.1,1.6,0.1,2.4,0.2c0.2,0,0.3,0,0.5,0c0.9,0.1,1.7,0.2,2.6,0.3c0,0,0.1,0,0.1,0c4.4,0.6,8.1,1.6,11.1,2.8c0,0,0.1,0,0.1,0
			c0.5,0.2,1,0.4,1.5,0.7c0.1,0,0.1,0.1,0.2,0.1c0.4,0.2,0.8,0.4,1.2,0.6c0.1,0.1,0.2,0.1,0.3,0.2c0.3,0.2,0.6,0.4,0.9,0.6
			c0.1,0.1,0.3,0.2,0.4,0.3c0.2,0.2,0.5,0.4,0.7,0.5c0.1,0.1,0.2,0.2,0.4,0.3c0.2,0.2,0.3,0.3,0.5,0.5c0.1,0.1,0.2,0.3,0.3,0.4
			c0.1,0.2,0.2,0.3,0.3,0.5c0.1,0.1,0.1,0.3,0.2,0.4c0.1,0.2,0.1,0.3,0.1,0.5c0.1,0.2,0.1,0.4,0.1,0.6c0,4.6-12.2,9.7-29.8,9.7
			c-17.6,0-29.8-5.1-29.8-9.7C261.9,160.8,267.6,157.4,276.8,155.6L276.8,155.6z M291.7,220.3c-16.9,0-29.1-4.8-29.8-9.3
			c0-0.1,0-0.1,0-0.2V200c0,0,0.1,0.1,0.1,0.1c0.3,0.3,0.6,0.5,0.9,0.7c4.9,3.7,14.7,6.6,28.8,6.6c14.1,0,23.8-2.8,28.8-6.5
			c0.4-0.3,0.7-0.6,1.1-0.9v10.9c0,0.1,0,0.1,0,0.2c0,0.3-0.1,0.5-0.3,0.8c-0.1,0.1-0.1,0.2-0.2,0.3
			C318.7,216.3,307.2,220.3,291.7,220.3L291.7,220.3z M334.5,204.6c-0.4,2.5-4.3,5-10.3,6.8c0,0,0-0.1,0-0.1v-12.7
			c0.1,0,0.1,0,0.2-0.1c0.5-0.1,1-0.3,1.5-0.4c0,0,0,0,0,0c3.8-1.2,6.8-2.7,8.7-4.4v10.8C334.5,204.5,334.5,204.5,334.5,204.6
			L334.5,204.6z M334.5,204.6"/>
	</g>
	<g>
		<g>
			<g>
				<path class="st0" d="M400.8,246.8c-2.2,0-4.1,3.1-4.1,7c0,3.9,1.8,7,4.1,7c2.2,0,4.1-3.1,4.1-7
					C404.9,250,403.1,246.8,400.8,246.8L400.8,246.8z M400.8,257.7c-1.2,0-2.3-1.7-2.3-3.9c0-2.1,1-3.9,2.3-3.9
					c1.2,0,2.3,1.7,2.3,3.9C403.1,255.9,402.1,257.7,400.8,257.7L400.8,257.7z M400.8,257.7"/>
				<path class="st0" d="M437.5,251.5c0,0.9-0.4,1.6-0.9,1.6c-0.5,0-0.9-0.7-0.9-1.6c0-0.9,0.4-1.6,0.9-1.6
					C437.1,249.9,437.5,250.6,437.5,251.5L437.5,251.5z M437.5,251.5"/>
				<path class="st0" d="M433.8,251.5c0,0.9-0.4,1.6-0.9,1.6c-0.5,0-0.9-0.7-0.9-1.6c0-0.9,0.4-1.6,0.9-1.6
					C433.4,249.9,433.8,250.6,433.8,251.5L433.8,251.5z M433.8,251.5"/>
				<path class="st0" d="M439.3,256.1c0,0.9-0.4,1.5-0.9,1.5c-0.5,0-0.9-0.7-0.9-1.5c0-0.9,0.4-1.6,0.9-1.6
					C438.9,254.6,439.3,255.3,439.3,256.1L439.3,256.1z M439.3,256.1"/>
				<path class="st0" d="M435.6,256.1c0,0.9-0.4,1.5-0.9,1.5c-0.5,0-0.9-0.7-0.9-1.5c0-0.9,0.4-1.6,0.9-1.6
					C435.2,254.6,435.6,255.3,435.6,256.1L435.6,256.1z M435.6,256.1"/>
				<path class="st0" d="M430.2,251.5c0,0.9-0.4,1.6-0.9,1.6c-0.5,0-0.9-0.7-0.9-1.6c0-0.9,0.4-1.6,0.9-1.6
					C429.8,249.9,430.2,250.6,430.2,251.5L430.2,251.5z M430.2,251.5"/>
				<path class="st0" d="M432,256.1c0,0.9-0.4,1.5-0.9,1.5c-0.5,0-0.9-0.7-0.9-1.5c0-0.9,0.4-1.6,0.9-1.6
					C431.6,254.6,432,255.3,432,256.1L432,256.1z M432,256.1"/>
				<path class="st0" d="M426.6,251.5c0,0.9-0.4,1.6-0.9,1.6c-0.5,0-0.9-0.7-0.9-1.6c0-0.9,0.4-1.6,0.9-1.6
					C426.2,249.9,426.6,250.6,426.6,251.5L426.6,251.5z M426.6,251.5"/>
				<path class="st0" d="M428.4,256.1c0,0.9-0.4,1.5-0.9,1.5s-0.9-0.7-0.9-1.5c0-0.9,0.4-1.6,0.9-1.6S428.4,255.3,428.4,256.1
					L428.4,256.1z M428.4,256.1"/>
				<path class="st0" d="M423,251.5c0,0.9-0.4,1.6-0.9,1.6c-0.5,0-0.9-0.7-0.9-1.6c0-0.9,0.4-1.6,0.9-1.6
					C422.6,249.9,423,250.6,423,251.5L423,251.5z M423,251.5"/>
				<path class="st0" d="M424.8,256.1c0,0.9-0.4,1.5-0.9,1.5c-0.5,0-0.9-0.7-0.9-1.5c0-0.9,0.4-1.6,0.9-1.6
					C424.4,254.6,424.8,255.3,424.8,256.1L424.8,256.1z M424.8,256.1"/>
				<path class="st0" d="M445.6,262.9v-18.3c0-3.9-1.9-7.1-4.2-7.1h-45.9c-2.3,0-4.2,3.2-4.2,7.1v18.3c0,2.3,0.6,4.3,1.6,5.6
					c-1,1.3-1.6,3.3-1.6,5.6v18.3c0,2.3,0.6,4.3,1.6,5.6c-1,1.3-1.6,3.3-1.6,5.6v18.3c0,3.9,1.9,7.1,4.2,7.1h45.9
					c2.3,0,4.2-3.2,4.2-7.1v-18.3c0-2.3-0.6-4.3-1.6-5.6c1-1.3,1.6-3.3,1.6-5.6v-18.3c0-2.3-0.6-4.3-1.6-5.6
					C445,267.2,445.6,265.2,445.6,262.9L445.6,262.9z M443.8,303.6v18.3c0,2.2-1.1,4-2.4,4h-45.9c-1.3,0-2.4-1.8-2.4-4v-18.3
					c0-2.2,1.1-4,2.4-4h45.9C442.7,299.5,443.8,301.3,443.8,303.6L443.8,303.6z M443.8,274.1v18.3c0,2.2-1.1,4-2.4,4h-45.9
					c-1.3,0-2.4-1.8-2.4-4v-18.3c0-2.2,1.1-4,2.4-4h45.9C442.7,270.1,443.8,271.9,443.8,274.1L443.8,274.1z M395.5,267
					c-1.3,0-2.4-1.8-2.4-4v-18.3c0-2.2,1.1-4,2.4-4h45.9c1.3,0,2.4,1.8,2.4,4v18.3c0,2.2-1.1,4-2.4,4H395.5z M395.5,267"/>
				<path class="st0" d="M400.8,290.2c2.2,0,4.1-3.1,4.1-7c0-3.9-1.8-7-4.1-7c-2.2,0-4.1,3.1-4.1,7
					C396.8,287.1,398.6,290.2,400.8,290.2L400.8,290.2z M400.8,279.4c1.2,0,2.3,1.7,2.3,3.9c0,2.1-1,3.9-2.3,3.9
					c-1.2,0-2.3-1.7-2.3-3.9C398.6,281.1,399.6,279.4,400.8,279.4L400.8,279.4z M400.8,279.4"/>
				<path class="st0" d="M437.5,280.9c0,0.9-0.4,1.6-0.9,1.6c-0.5,0-0.9-0.7-0.9-1.6c0-0.9,0.4-1.5,0.9-1.5
					C437.1,279.4,437.5,280.1,437.5,280.9L437.5,280.9z M437.5,280.9"/>
				<path class="st0" d="M433.8,280.9c0,0.9-0.4,1.6-0.9,1.6c-0.5,0-0.9-0.7-0.9-1.6c0-0.9,0.4-1.5,0.9-1.5
					C433.4,279.4,433.8,280.1,433.8,280.9L433.8,280.9z M433.8,280.9"/>
				<path class="st0" d="M439.3,285.6c0,0.9-0.4,1.6-0.9,1.6c-0.5,0-0.9-0.7-0.9-1.6c0-0.9,0.4-1.6,0.9-1.6
					C438.9,284,439.3,284.7,439.3,285.6L439.3,285.6z M439.3,285.6"/>
				<path class="st0" d="M435.6,285.6c0,0.9-0.4,1.6-0.9,1.6c-0.5,0-0.9-0.7-0.9-1.6c0-0.9,0.4-1.6,0.9-1.6
					C435.2,284,435.6,284.7,435.6,285.6L435.6,285.6z M435.6,285.6"/>
				<path class="st0" d="M430.2,280.9c0,0.9-0.4,1.6-0.9,1.6c-0.5,0-0.9-0.7-0.9-1.6c0-0.9,0.4-1.5,0.9-1.5
					C429.8,279.4,430.2,280.1,430.2,280.9L430.2,280.9z M430.2,280.9"/>
				<path class="st0" d="M432,285.6c0,0.9-0.4,1.6-0.9,1.6c-0.5,0-0.9-0.7-0.9-1.6c0-0.9,0.4-1.6,0.9-1.6
					C431.6,284,432,284.7,432,285.6L432,285.6z M432,285.6"/>
				<path class="st0" d="M426.6,280.9c0,0.9-0.4,1.6-0.9,1.6c-0.5,0-0.9-0.7-0.9-1.6c0-0.9,0.4-1.5,0.9-1.5
					C426.2,279.4,426.6,280.1,426.6,280.9L426.6,280.9z M426.6,280.9"/>
				<path class="st0" d="M428.4,285.6c0,0.9-0.4,1.6-0.9,1.6s-0.9-0.7-0.9-1.6c0-0.9,0.4-1.6,0.9-1.6S428.4,284.7,428.4,285.6
					L428.4,285.6z M428.4,285.6"/>
				<path class="st0" d="M423,280.9c0,0.9-0.4,1.6-0.9,1.6c-0.5,0-0.9-0.7-0.9-1.6c0-0.9,0.4-1.5,0.9-1.5
					C422.6,279.4,423,280.1,423,280.9L423,280.9z M423,280.9"/>
				<path class="st0" d="M424.8,285.6c0,0.9-0.4,1.6-0.9,1.6c-0.5,0-0.9-0.7-0.9-1.6c0-0.9,0.4-1.6,0.9-1.6
					C424.4,284,424.8,284.7,424.8,285.6L424.8,285.6z M424.8,285.6"/>
				<path class="st0" d="M400.8,319.7c2.2,0,4.1-3.1,4.1-7c0-3.8-1.8-7-4.1-7c-2.2,0-4.1,3.1-4.1,7
					C396.8,316.5,398.6,319.7,400.8,319.7L400.8,319.7z M400.8,308.8c1.2,0,2.3,1.7,2.3,3.9c0,2.1-1,3.9-2.3,3.9
					c-1.2,0-2.3-1.7-2.3-3.9C398.6,310.6,399.6,308.8,400.8,308.8L400.8,308.8z M400.8,308.8"/>
				<path class="st0" d="M437.5,310.4c0,0.9-0.4,1.5-0.9,1.5c-0.5,0-0.9-0.7-0.9-1.5c0-0.9,0.4-1.6,0.9-1.6
					C437.1,308.8,437.5,309.5,437.5,310.4L437.5,310.4z M437.5,310.4"/>
				<path class="st0" d="M433.8,310.4c0,0.9-0.4,1.5-0.9,1.5c-0.5,0-0.9-0.7-0.9-1.5c0-0.9,0.4-1.6,0.9-1.6
					C433.4,308.8,433.8,309.5,433.8,310.4L433.8,310.4z M433.8,310.4"/>
				<path class="st0" d="M439.3,315c0,0.9-0.4,1.6-0.9,1.6c-0.5,0-0.9-0.7-0.9-1.6s0.4-1.6,0.9-1.6
					C438.9,313.5,439.3,314.2,439.3,315L439.3,315z M439.3,315"/>
				<path class="st0" d="M435.6,315c0,0.9-0.4,1.6-0.9,1.6c-0.5,0-0.9-0.7-0.9-1.6s0.4-1.6,0.9-1.6
					C435.2,313.5,435.6,314.2,435.6,315L435.6,315z M435.6,315"/>
				<path class="st0" d="M430.2,310.4c0,0.9-0.4,1.5-0.9,1.5c-0.5,0-0.9-0.7-0.9-1.5c0-0.9,0.4-1.6,0.9-1.6
					C429.8,308.8,430.2,309.5,430.2,310.4L430.2,310.4z M430.2,310.4"/>
				<path class="st0" d="M432,315c0,0.9-0.4,1.6-0.9,1.6c-0.5,0-0.9-0.7-0.9-1.6s0.4-1.6,0.9-1.6C431.6,313.5,432,314.2,432,315
					L432,315z M432,315"/>
				<path class="st0" d="M426.6,310.4c0,0.9-0.4,1.5-0.9,1.5c-0.5,0-0.9-0.7-0.9-1.5c0-0.9,0.4-1.6,0.9-1.6
					C426.2,308.8,426.6,309.5,426.6,310.4L426.6,310.4z M426.6,310.4"/>
				<path class="st0" d="M428.4,315c0,0.9-0.4,1.6-0.9,1.6s-0.9-0.7-0.9-1.6s0.4-1.6,0.9-1.6S428.4,314.2,428.4,315L428.4,315z
					 M428.4,315"/>
				<path class="st0" d="M423,310.4c0,0.9-0.4,1.5-0.9,1.5c-0.5,0-0.9-0.7-0.9-1.5c0-0.9,0.4-1.6,0.9-1.6
					C422.6,308.8,423,309.5,423,310.4L423,310.4z M423,310.4"/>
				<path class="st0" d="M424.8,315c0,0.9-0.4,1.6-0.9,1.6c-0.5,0-0.9-0.7-0.9-1.6s0.4-1.6,0.9-1.6
					C424.4,313.5,424.8,314.2,424.8,315L424.8,315z M424.8,315"/>
			</g>
		</g>
		<g>
			<g>
				<path class="st0" d="M464.8,246.8c-2.2,0-4.1,3.1-4.1,7c0,3.9,1.8,7,4.1,7c2.2,0,4.1-3.1,4.1-7C468.8,250,467,246.8,464.8,246.8
					L464.8,246.8z M464.8,257.7c-1.2,0-2.3-1.7-2.3-3.9c0-2.1,1-3.9,2.3-3.9c1.2,0,2.3,1.7,2.3,3.9C467,255.9,466,257.7,464.8,257.7
					L464.8,257.7z M464.8,257.7"/>
				<path class="st0" d="M501.4,251.5c0,0.9-0.4,1.6-0.9,1.6c-0.5,0-0.9-0.7-0.9-1.6c0-0.9,0.4-1.6,0.9-1.6
					C501,249.9,501.4,250.6,501.4,251.5L501.4,251.5z M501.4,251.5"/>
				<path class="st0" d="M497.8,251.5c0,0.9-0.4,1.6-0.9,1.6c-0.5,0-0.9-0.7-0.9-1.6c0-0.9,0.4-1.6,0.9-1.6
					C497.4,249.9,497.8,250.6,497.8,251.5L497.8,251.5z M497.8,251.5"/>
				<path class="st0" d="M503.2,256.1c0,0.9-0.4,1.5-0.9,1.5c-0.5,0-0.9-0.7-0.9-1.5c0-0.9,0.4-1.6,0.9-1.6
					C502.8,254.6,503.2,255.3,503.2,256.1L503.2,256.1z M503.2,256.1"/>
				<path class="st0" d="M499.6,256.1c0,0.9-0.4,1.5-0.9,1.5c-0.5,0-0.9-0.7-0.9-1.5c0-0.9,0.4-1.6,0.9-1.6
					C499.2,254.6,499.6,255.3,499.6,256.1L499.6,256.1z M499.6,256.1"/>
				<path class="st0" d="M494.1,251.5c0,0.9-0.4,1.6-0.9,1.6c-0.5,0-0.9-0.7-0.9-1.6c0-0.9,0.4-1.6,0.9-1.6
					C493.7,249.9,494.1,250.6,494.1,251.5L494.1,251.5z M494.1,251.5"/>
				<path class="st0" d="M496,256.1c0,0.9-0.4,1.5-0.9,1.5c-0.5,0-0.9-0.7-0.9-1.5c0-0.9,0.4-1.6,0.9-1.6
					C495.6,254.6,496,255.3,496,256.1L496,256.1z M496,256.1"/>
				<path class="st0" d="M490.5,251.5c0,0.9-0.4,1.6-0.9,1.6c-0.5,0-0.9-0.7-0.9-1.6c0-0.9,0.4-1.6,0.9-1.6
					C490.1,249.9,490.5,250.6,490.5,251.5L490.5,251.5z M490.5,251.5"/>
				<path class="st0" d="M492.3,256.1c0,0.9-0.4,1.5-0.9,1.5s-0.9-0.7-0.9-1.5c0-0.9,0.4-1.6,0.9-1.6S492.3,255.3,492.3,256.1
					L492.3,256.1z M492.3,256.1"/>
				<path class="st0" d="M486.9,251.5c0,0.9-0.4,1.6-0.9,1.6c-0.5,0-0.9-0.7-0.9-1.6c0-0.9,0.4-1.6,0.9-1.6
					C486.5,249.9,486.9,250.6,486.9,251.5L486.9,251.5z M486.9,251.5"/>
				<path class="st0" d="M488.7,256.1c0,0.9-0.4,1.5-0.9,1.5c-0.5,0-0.9-0.7-0.9-1.5c0-0.9,0.4-1.6,0.9-1.6
					C488.3,254.6,488.7,255.3,488.7,256.1L488.7,256.1z M488.7,256.1"/>
				<path class="st0" d="M509.5,262.9v-18.3c0-3.9-1.9-7.1-4.2-7.1h-45.9c-2.3,0-4.2,3.2-4.2,7.1v18.3c0,2.3,0.6,4.3,1.6,5.6
					c-1,1.3-1.6,3.3-1.6,5.6v18.3c0,2.3,0.6,4.3,1.6,5.6c-1,1.3-1.6,3.3-1.6,5.6v18.3c0,3.9,1.9,7.1,4.2,7.1h45.9
					c2.3,0,4.2-3.2,4.2-7.1v-18.3c0-2.3-0.6-4.3-1.6-5.6c1-1.3,1.6-3.3,1.6-5.6v-18.3c0-2.3-0.6-4.3-1.6-5.6
					C508.9,267.2,509.5,265.2,509.5,262.9L509.5,262.9z M507.7,303.6v18.3c0,2.2-1.1,4-2.4,4h-45.9c-1.3,0-2.4-1.8-2.4-4v-18.3
					c0-2.2,1.1-4,2.4-4h45.9C506.7,299.5,507.7,301.3,507.7,303.6L507.7,303.6z M507.7,274.1v18.3c0,2.2-1.1,4-2.4,4h-45.9
					c-1.3,0-2.4-1.8-2.4-4v-18.3c0-2.2,1.1-4,2.4-4h45.9C506.7,270.1,507.7,271.9,507.7,274.1L507.7,274.1z M459.4,267
					c-1.3,0-2.4-1.8-2.4-4v-18.3c0-2.2,1.1-4,2.4-4h45.9c1.3,0,2.4,1.8,2.4,4v18.3c0,2.2-1.1,4-2.4,4H459.4z M459.4,267"/>
				<path class="st0" d="M464.8,290.2c2.2,0,4.1-3.1,4.1-7c0-3.9-1.8-7-4.1-7c-2.2,0-4.1,3.1-4.1,7
					C460.7,287.1,462.5,290.2,464.8,290.2L464.8,290.2z M464.8,279.4c1.2,0,2.3,1.7,2.3,3.9c0,2.1-1,3.9-2.3,3.9
					c-1.2,0-2.3-1.7-2.3-3.9C462.5,281.1,463.5,279.4,464.8,279.4L464.8,279.4z M464.8,279.4"/>
				<path class="st0" d="M501.4,280.9c0,0.9-0.4,1.6-0.9,1.6c-0.5,0-0.9-0.7-0.9-1.6c0-0.9,0.4-1.5,0.9-1.5
					C501,279.4,501.4,280.1,501.4,280.9L501.4,280.9z M501.4,280.9"/>
				<path class="st0" d="M497.8,280.9c0,0.9-0.4,1.6-0.9,1.6c-0.5,0-0.9-0.7-0.9-1.6c0-0.9,0.4-1.5,0.9-1.5
					C497.4,279.4,497.8,280.1,497.8,280.9L497.8,280.9z M497.8,280.9"/>
				<path class="st0" d="M503.2,285.6c0,0.9-0.4,1.6-0.9,1.6c-0.5,0-0.9-0.7-0.9-1.6c0-0.9,0.4-1.6,0.9-1.6
					C502.8,284,503.2,284.7,503.2,285.6L503.2,285.6z M503.2,285.6"/>
				<path class="st0" d="M499.6,285.6c0,0.9-0.4,1.6-0.9,1.6c-0.5,0-0.9-0.7-0.9-1.6c0-0.9,0.4-1.6,0.9-1.6
					C499.2,284,499.6,284.7,499.6,285.6L499.6,285.6z M499.6,285.6"/>
				<path class="st0" d="M494.1,280.9c0,0.9-0.4,1.6-0.9,1.6c-0.5,0-0.9-0.7-0.9-1.6c0-0.9,0.4-1.5,0.9-1.5
					C493.7,279.4,494.1,280.1,494.1,280.9L494.1,280.9z M494.1,280.9"/>
				<path class="st0" d="M496,285.6c0,0.9-0.4,1.6-0.9,1.6c-0.5,0-0.9-0.7-0.9-1.6c0-0.9,0.4-1.6,0.9-1.6
					C495.6,284,496,284.7,496,285.6L496,285.6z M496,285.6"/>
				<path class="st0" d="M490.5,280.9c0,0.9-0.4,1.6-0.9,1.6c-0.5,0-0.9-0.7-0.9-1.6c0-0.9,0.4-1.5,0.9-1.5
					C490.1,279.4,490.5,280.1,490.5,280.9L490.5,280.9z M490.5,280.9"/>
				<path class="st0" d="M492.3,285.6c0,0.9-0.4,1.6-0.9,1.6s-0.9-0.7-0.9-1.6c0-0.9,0.4-1.6,0.9-1.6S492.3,284.7,492.3,285.6
					L492.3,285.6z M492.3,285.6"/>
				<path class="st0" d="M486.9,280.9c0,0.9-0.4,1.6-0.9,1.6c-0.5,0-0.9-0.7-0.9-1.6c0-0.9,0.4-1.5,0.9-1.5
					C486.5,279.4,486.9,280.1,486.9,280.9L486.9,280.9z M486.9,280.9"/>
				<path class="st0" d="M488.7,285.6c0,0.9-0.4,1.6-0.9,1.6c-0.5,0-0.9-0.7-0.9-1.6c0-0.9,0.4-1.6,0.9-1.6
					C488.3,284,488.7,284.7,488.7,285.6L488.7,285.6z M488.7,285.6"/>
				<path class="st0" d="M464.8,319.7c2.2,0,4.1-3.1,4.1-7c0-3.8-1.8-7-4.1-7c-2.2,0-4.1,3.1-4.1,7
					C460.7,316.5,462.5,319.7,464.8,319.7L464.8,319.7z M464.8,308.8c1.2,0,2.3,1.7,2.3,3.9c0,2.1-1,3.9-2.3,3.9
					c-1.2,0-2.3-1.7-2.3-3.9C462.5,310.6,463.5,308.8,464.8,308.8L464.8,308.8z M464.8,308.8"/>
				<path class="st0" d="M501.4,310.4c0,0.9-0.4,1.5-0.9,1.5c-0.5,0-0.9-0.7-0.9-1.5c0-0.9,0.4-1.6,0.9-1.6
					C501,308.8,501.4,309.5,501.4,310.4L501.4,310.4z M501.4,310.4"/>
				<path class="st0" d="M497.8,310.4c0,0.9-0.4,1.5-0.9,1.5c-0.5,0-0.9-0.7-0.9-1.5c0-0.9,0.4-1.6,0.9-1.6
					C497.4,308.8,497.8,309.5,497.8,310.4L497.8,310.4z M497.8,310.4"/>
				<path class="st0" d="M503.2,315c0,0.9-0.4,1.6-0.9,1.6c-0.5,0-0.9-0.7-0.9-1.6s0.4-1.6,0.9-1.6
					C502.8,313.5,503.2,314.2,503.2,315L503.2,315z M503.2,315"/>
				<path class="st0" d="M499.6,315c0,0.9-0.4,1.6-0.9,1.6c-0.5,0-0.9-0.7-0.9-1.6s0.4-1.6,0.9-1.6
					C499.2,313.5,499.6,314.2,499.6,315L499.6,315z M499.6,315"/>
				<path class="st0" d="M494.1,310.4c0,0.9-0.4,1.5-0.9,1.5c-0.5,0-0.9-0.7-0.9-1.5c0-0.9,0.4-1.6,0.9-1.6
					C493.7,308.8,494.1,309.5,494.1,310.4L494.1,310.4z M494.1,310.4"/>
				<path class="st0" d="M496,315c0,0.9-0.4,1.6-0.9,1.6c-0.5,0-0.9-0.7-0.9-1.6s0.4-1.6,0.9-1.6C495.6,313.5,496,314.2,496,315
					L496,315z M496,315"/>
				<path class="st0" d="M490.5,310.4c0,0.9-0.4,1.5-0.9,1.5c-0.5,0-0.9-0.7-0.9-1.5c0-0.9,0.4-1.6,0.9-1.6
					C490.1,308.8,490.5,309.5,490.5,310.4L490.5,310.4z M490.5,310.4"/>
				<path class="st0" d="M492.3,315c0,0.9-0.4,1.6-0.9,1.6s-0.9-0.7-0.9-1.6s0.4-1.6,0.9-1.6S492.3,314.2,492.3,315L492.3,315z
					 M492.3,315"/>
				<path class="st0" d="M486.9,310.4c0,0.9-0.4,1.5-0.9,1.5c-0.5,0-0.9-0.7-0.9-1.5c0-0.9,0.4-1.6,0.9-1.6
					C486.5,308.8,486.9,309.5,486.9,310.4L486.9,310.4z M486.9,310.4"/>
				<path class="st0" d="M488.7,315c0,0.9-0.4,1.6-0.9,1.6c-0.5,0-0.9-0.7-0.9-1.6s0.4-1.6,0.9-1.6
					C488.3,313.5,488.7,314.2,488.7,315L488.7,315z M488.7,315"/>
			</g>
		</g>
	</g>
	<g>
		<g>
			<g>
				<path class="st0" d="M199,267.2c-0.3-16.2-21-29.7-46.4-29.7c-16.2,0-31.4,5.6-39.8,13.6c-3.7-1.6-8.1-2.5-12.9-2.5
					c-12.9,0-23.3,6.7-23.3,14.9c0,0.3,0,0.6,0.1,0.8c0,0.3-0.1,0.7-0.1,1c-11.6,3.5-20.4,12-20.4,20.7c0,12.1,15.5,22,34.5,22h71.4
					c0.4,0,0.8,0,1.2,0c0.4,0,0.8,0,1.2,0h28.6c17.7,0,32.1-9.2,32.1-20.5C225.2,277.6,213.8,269,199,267.2L199,267.2z M199,267.2"
					/>
				<path class="st0" d="M199,267.2c0,0-7.4-0.7-14.6,0"/>
				<path class="st0" d="M76.6,263.5c0-8.2,10.4-14.9,23.3-14.9c12.9,0,23.3,6.7,23.3,14.9"/>
			</g>
			<g>
				<path class="st0" d="M82.5,304.8c0.3,16.2,21,29.7,46.4,29.7c16.2,0,31.4-5.6,39.8-13.6c3.7,1.6,8.1,2.5,12.9,2.5
					c12.9,0,23.3-6.7,23.3-14.9c0-0.3,0-0.6-0.1-0.8c0-0.3,0.1-0.7,0.1-1c11.6-3.5,20.4-12,20.4-20.7c0-12.1-15.5-22-34.5-22h-71.4
					c-0.4,0-0.8,0-1.2,0c-0.4,0-0.8,0-1.2,0H88.4c-17.7,0-32.1,9.2-32.1,20.5C56.3,294.4,67.6,303,82.5,304.8L82.5,304.8z
					 M82.5,304.8"/>
				<path class="st0" d="M82.5,304.8c0,0,7.4,0.7,14.6,0"/>
				<path class="st0" d="M204.8,308.5c0,8.2-10.4,14.9-23.3,14.9c-12.9,0-23.3-6.7-23.3-14.9"/>
			</g>
		</g>
		<g>
			<g>
				<path class="st1" d="M133.1,310.6c-1.7,0-3.4-0.8-4.4-2.2l-14.3-18.9c-1.9-2.5-1.4-5.9,1.1-7.8c2.5-1.9,6-1.4,7.8,1.1l9.4,12.4
					l23.6-38c1.6-2.6,5.1-3.4,7.7-1.8c2.6,1.6,3.4,5.1,1.8,7.7l-27.9,44.8c-1,1.6-2.6,2.5-4.5,2.6
					C133.3,310.6,133.2,310.6,133.1,310.6L133.1,310.6z M133.1,310.6"/>
			</g>
		</g>
	</g>
	<g>
		<path class="st0" d="M306.6,362.5l-3.6-1c-0.5-0.2-0.9-0.1-1.4,0.1c-0.4,0.3-0.7,0.6-0.9,1.1l-21.6,74.9c-0.2,0.5-0.1,1,0.1,1.4
			c0.3,0.4,0.6,0.7,1.1,0.9l3.6,1c0.5,0.2,0.9,0.1,1.4-0.1c0.4-0.3,0.7-0.6,0.9-1.1l21.6-74.9c0.2-0.5,0.1-1-0.1-1.4
			C307.5,363,307.1,362.7,306.6,362.5L306.6,362.5z M306.6,362.5"/>
	</g>
	<path class="st0" d="M274.2,377.1c0-0.5-0.2-0.9-0.6-1.3l-2.9-2.9c-0.4-0.4-0.8-0.6-1.3-0.6c-0.5,0-0.9,0.2-1.3,0.6l-27,27
		c-0.4,0.4-0.6,0.8-0.6,1.3c0,0.5,0.2,0.9,0.6,1.3l27,27c0.4,0.4,0.8,0.6,1.3,0.6c0.5,0,0.9-0.2,1.3-0.6l2.9-2.9
		c0.4-0.4,0.6-0.8,0.6-1.3c0-0.5-0.2-0.9-0.6-1.3l-22.8-22.8l22.8-22.8C274,378.1,274.2,377.7,274.2,377.1L274.2,377.1z
		 M274.2,377.1"/>
	<path class="st0" d="M346,400l-27-27c-0.4-0.4-0.8-0.6-1.3-0.6c-0.5,0-0.9,0.2-1.3,0.6l-2.9,2.9c-0.4,0.4-0.6,0.8-0.6,1.3
		c0,0.5,0.2,0.9,0.6,1.3l22.8,22.8l-22.8,22.8c-0.4,0.4-0.6,0.8-0.6,1.3c0,0.5,0.2,0.9,0.6,1.3l2.9,2.9c0.4,0.4,0.8,0.6,1.3,0.6
		c0.5,0,0.9-0.2,1.3-0.6l27-27c0.4-0.4,0.6-0.8,0.6-1.3C346.6,400.8,346.4,400.3,346,400L346,400z M346,400"/>
</g>
</svg>
