<?xml version="1.0" encoding="utf-8"?>
<!-- Generator: Adobe Illustrator 22.0.0, SVG Export Plug-In . SVG Version: 6.00 Build 0)  -->
<svg version="1.1" id="Layer_1" xmlns="http://www.w3.org/2000/svg" xmlns:xlink="http://www.w3.org/1999/xlink" x="0px" y="0px"
	 viewBox="0 0 572 572" style="enable-background:new 0 0 572 572;" xml:space="preserve">
<style type="text/css">
	.st0{fill:#FFFFFF;}
</style>
<g>
	<path class="st0" d="M168.4,234.5c-16.6,0-30.7,3.9-35.5,9.7c-9.8,2.4-15.4,6.4-16.5,10.5c-0.1,0.2-0.2,0.5-0.2,0.7v55.2
		c0,0.2,0.1,0.5,0.2,0.7c1.8,7.3,17.5,12.8,37.1,12.8c16.8,0,30.7-4,35.5-9.7c9.5-2.3,15.5-6.1,16.6-10.4c0.1-0.2,0.2-0.5,0.2-0.7
		v-54.5C205.7,241.8,192.6,234.5,168.4,234.5L168.4,234.5z M187.5,293.2c-0.1,0.2-0.1,0.3-0.2,0.4c-0.1,0.2-0.2,0.4-0.3,0.6
		c-0.1,0.1-0.2,0.3-0.3,0.4c-0.2,0.2-0.3,0.4-0.5,0.6c-0.1,0.1-0.3,0.2-0.4,0.3c-0.2,0.2-0.5,0.4-0.8,0.6c-0.1,0.1-0.3,0.2-0.4,0.3
		c-0.3,0.2-0.7,0.5-1.1,0.7c-0.1,0.1-0.2,0.1-0.3,0.2c-0.4,0.2-0.9,0.5-1.4,0.7c-0.1,0-0.1,0.1-0.2,0.1c-0.6,0.3-1.1,0.5-1.8,0.8
		c0,0,0,0-0.1,0c-3.4,1.4-7.7,2.5-12.8,3.2c0,0-0.1,0-0.1,0c-1,0.1-2,0.3-3,0.4c-0.2,0-0.3,0-0.5,0.1c-0.9,0.1-1.8,0.2-2.8,0.2
		c-0.4,0-0.9,0-1.3,0.1c-0.7,0-1.4,0.1-2.1,0.1c-1.2,0-2.4,0.1-3.6,0.1s-2.4,0-3.6-0.1c-0.7,0-1.4-0.1-2.1-0.1c-0.4,0-0.9,0-1.3-0.1
		c-0.9-0.1-1.9-0.2-2.8-0.2c-0.2,0-0.4,0-0.5-0.1c-1-0.1-2-0.2-3-0.4c0,0-0.1,0-0.1,0c-5-0.7-9.4-1.9-12.8-3.2c0,0,0,0-0.1,0
		c-0.6-0.3-1.2-0.5-1.8-0.8c-0.1,0-0.1-0.1-0.2-0.1c-0.5-0.2-1-0.5-1.4-0.7c-0.1-0.1-0.2-0.1-0.3-0.2c-0.4-0.2-0.7-0.5-1.1-0.7
		c-0.1-0.1-0.3-0.2-0.4-0.3c-0.3-0.2-0.5-0.4-0.8-0.6c-0.1-0.1-0.3-0.2-0.4-0.4c-0.2-0.2-0.4-0.4-0.5-0.6c-0.1-0.1-0.2-0.3-0.3-0.4
		c-0.1-0.2-0.2-0.4-0.3-0.5c-0.1-0.2-0.2-0.3-0.2-0.4c-0.1-0.2-0.1-0.4-0.2-0.5c-0.1-0.2-0.1-0.5-0.1-0.7c0-0.2,0-0.3,0-0.5
		c0-0.2,0-0.5,0-0.7v-11.1c0,0,0.1,0.1,0.1,0.1c0.3,0.3,0.7,0.6,1,0.8c5.6,4.2,16.9,7.6,33.2,7.6c16.2,0,27.4-3.3,33.1-7.5
		c0.5-0.3,0.9-0.7,1.2-1v11.1c-0.1,0.2-0.1,0.4,0,0.7c0,0.2,0,0.3,0,0.5c0,0.2-0.1,0.5-0.1,0.7C187.6,292.8,187.5,293,187.5,293.2
		L187.5,293.2z M120,262.5c0.4,0.4,0.9,0.7,1.4,1c0.1,0.1,0.2,0.1,0.4,0.2c0.4,0.3,0.9,0.5,1.4,0.8c0.2,0.1,0.4,0.2,0.5,0.3
		c0.5,0.3,1.1,0.5,1.7,0.8c0.1,0,0.2,0.1,0.3,0.1c0.7,0.3,1.4,0.6,2.2,0.9c0.2,0.1,0.4,0.1,0.7,0.2c0.6,0.2,1.3,0.4,1.9,0.6
		c0.2,0.1,0.5,0.1,0.7,0.2c0.9,0.2,1.8,0.5,2.7,0.7c0.1,0,0.3,0.1,0.4,0.1c0.8,0.2,1.7,0.3,2.6,0.5c0.3,0.1,0.6,0.1,0.9,0.2
		c0.8,0.1,1.7,0.3,2.6,0.4c0.2,0,0.4,0.1,0.7,0.1c1.1,0.1,2.3,0.2,3.4,0.4c0.3,0,0.6,0,0.9,0.1c0.9,0.1,1.9,0.1,2.9,0.2
		c0.4,0,0.7,0,1.1,0c1.3,0,2.6,0.1,4,0.1s2.7,0,4-0.1c0.4,0,0.7,0,1.1,0c1-0.1,2-0.1,2.9-0.2c0.3,0,0.6,0,0.9-0.1
		c1.2-0.1,2.3-0.2,3.4-0.4c0.2,0,0.5-0.1,0.7-0.1c0.9-0.1,1.8-0.2,2.6-0.4c0.3-0.1,0.6-0.1,0.9-0.2c0.9-0.2,1.8-0.3,2.6-0.5
		c0.1,0,0.3-0.1,0.4-0.1c0.9-0.2,1.9-0.4,2.7-0.7c0.2-0.1,0.5-0.1,0.7-0.2c0.7-0.2,1.3-0.4,1.9-0.6c0.2-0.1,0.4-0.1,0.7-0.2
		c0.8-0.3,1.5-0.6,2.2-0.9c0.1,0,0.2-0.1,0.3-0.1c0.6-0.3,1.2-0.5,1.7-0.8c0.2-0.1,0.4-0.2,0.5-0.3c0.5-0.3,1-0.5,1.4-0.8
		c0.1-0.1,0.2-0.1,0.3-0.2c0.5-0.3,1-0.7,1.5-1c0.1-0.1,0.2-0.2,0.3-0.3c0.2-0.2,0.4-0.3,0.6-0.5v11.1c-0.1,0.2-0.1,0.4,0,0.7
		c0,0.2,0,0.3,0,0.5c0,0.2-0.1,0.5-0.1,0.7c0,0.2-0.1,0.4-0.2,0.5c-0.1,0.1-0.1,0.3-0.2,0.4c-0.1,0.2-0.2,0.4-0.3,0.5
		c-0.1,0.1-0.2,0.3-0.3,0.4c-0.2,0.2-0.3,0.4-0.5,0.6c-0.1,0.1-0.3,0.2-0.4,0.4c-0.2,0.2-0.5,0.4-0.8,0.6c-0.1,0.1-0.3,0.2-0.4,0.3
		c-0.3,0.2-0.7,0.5-1.1,0.7c-0.1,0.1-0.2,0.1-0.3,0.2c-0.4,0.3-0.9,0.5-1.4,0.7c-0.1,0-0.1,0.1-0.2,0.1c-0.6,0.3-1.1,0.5-1.8,0.8
		c0,0,0,0-0.1,0c-3.4,1.3-7.7,2.5-12.8,3.2c0,0-0.1,0-0.1,0c-1,0.1-2,0.3-3,0.4c-0.2,0-0.3,0-0.5,0.1c-0.9,0.1-1.8,0.2-2.8,0.2
		c-0.4,0-0.9,0.1-1.3,0.1c-0.7,0-1.4,0.1-2.1,0.1c-1.2,0-2.4,0.1-3.6,0.1s-2.4,0-3.6-0.1c-0.7,0-1.4-0.1-2.1-0.1
		c-0.4,0-0.9,0-1.3-0.1c-0.9-0.1-1.9-0.2-2.8-0.3c-0.2,0-0.4,0-0.5,0c-1-0.1-2-0.2-3-0.4c0,0-0.1,0-0.1,0c-5-0.7-9.4-1.9-12.8-3.2
		c0,0,0,0-0.1,0c-0.6-0.2-1.2-0.5-1.8-0.8c-0.1,0-0.1-0.1-0.2-0.1c-0.5-0.2-1-0.5-1.4-0.7c-0.1-0.1-0.2-0.1-0.3-0.2
		c-0.4-0.2-0.7-0.5-1.1-0.7c-0.1-0.1-0.3-0.2-0.4-0.3c-0.3-0.2-0.5-0.4-0.8-0.6c-0.1-0.1-0.3-0.2-0.4-0.4c-0.2-0.2-0.4-0.4-0.5-0.6
		c-0.1-0.1-0.2-0.3-0.3-0.4c-0.1-0.2-0.2-0.4-0.3-0.6c-0.1-0.1-0.2-0.3-0.2-0.4c-0.1-0.2-0.1-0.4-0.2-0.5c-0.1-0.2-0.1-0.5-0.1-0.7
		c0-0.2,0-0.3,0-0.5c0-0.2,0-0.5,0-0.7v-11.1c0.2,0.2,0.4,0.3,0.6,0.5C119.8,262.3,119.9,262.4,120,262.5L120,262.5z M190.7,292.8
		V278c0.1,0,0.1,0,0.2-0.1c0.6-0.2,1.2-0.3,1.7-0.5c0,0,0,0,0,0c4.4-1.4,7.8-3.1,10-5.1v12.2c0,0.2,0,0.3-0.1,0.5
		c0,0.1-0.1,0.3-0.1,0.4c0,0,0,0.1,0,0.1c-0.1,0.2-0.1,0.3-0.2,0.5c0,0,0,0,0,0.1c-1.2,2.4-5.2,4.8-10.9,6.5
		C191.2,292.7,191,292.7,190.7,292.8L190.7,292.8z M202.7,254.4v12.2c0,0.2,0,0.4-0.1,0.5c0,0.1-0.1,0.3-0.1,0.4c0,0,0,0.1,0,0.1
		c-0.1,0.2-0.1,0.3-0.2,0.5c0,0,0,0,0,0.1c-1.2,2.4-5.2,4.8-10.9,6.5c-0.2,0.1-0.4,0.1-0.7,0.2v-14.8c0.1,0,0.2-0.1,0.4-0.1
		c0.3-0.1,0.7-0.2,1-0.3c0.3-0.1,0.6-0.2,0.8-0.3c0.3-0.1,0.7-0.2,1-0.3c0.2-0.1,0.5-0.2,0.7-0.3c0.4-0.1,0.7-0.3,1-0.4
		c0.2-0.1,0.4-0.2,0.6-0.2c0.4-0.2,0.7-0.3,1.1-0.5c0.1-0.1,0.3-0.1,0.4-0.2c0.5-0.2,0.9-0.5,1.4-0.7c0.1,0,0.1-0.1,0.1-0.1
		c0.4-0.2,0.8-0.4,1.1-0.7c0.1-0.1,0.2-0.2,0.4-0.2c0.3-0.2,0.5-0.3,0.8-0.5c0.1-0.1,0.3-0.2,0.4-0.3c0.2-0.2,0.4-0.3,0.6-0.5
		C202.6,254.4,202.6,254.4,202.7,254.4L202.7,254.4z M168.4,237.5c20.2,0,34.3,5.9,34.3,11.2c0,0.2,0,0.4-0.1,0.6
		c0,0.1,0,0.1-0.1,0.2c0,0.1-0.1,0.3-0.1,0.4c0,0.1-0.1,0.2-0.1,0.2c-0.1,0.1-0.1,0.2-0.2,0.4c0,0.1-0.1,0.2-0.2,0.2
		c-0.1,0.1-0.2,0.2-0.2,0.3c-0.1,0.1-0.1,0.2-0.2,0.3c-0.1,0.1-0.2,0.2-0.3,0.3c-0.1,0.1-0.2,0.2-0.2,0.3c-0.1,0.1-0.2,0.2-0.4,0.3
		c-0.1,0.1-0.2,0.2-0.3,0.2c-0.1,0.1-0.3,0.2-0.4,0.3c-0.1,0.1-0.2,0.2-0.3,0.2c-0.1,0.1-0.3,0.2-0.5,0.3c-0.1,0.1-0.2,0.2-0.4,0.2
		c-0.2,0.1-0.4,0.2-0.5,0.3c-0.1,0.1-0.3,0.2-0.4,0.2c-0.2,0.1-0.4,0.2-0.6,0.3c-0.1,0.1-0.3,0.1-0.4,0.2c-0.2,0.1-0.5,0.2-0.7,0.3
		c-0.1,0.1-0.3,0.1-0.4,0.2c-0.3,0.1-0.6,0.3-1,0.4c-0.1,0-0.1,0.1-0.2,0.1c-0.4,0.2-0.8,0.3-1.3,0.5c-0.1,0-0.2,0.1-0.4,0.1
		c-0.3,0.1-0.6,0.2-1,0.3c-0.2,0.1-0.4,0.1-0.5,0.2c-0.2,0.1-0.5,0.1-0.7,0.2v-1.6c0-0.2,0-0.3-0.1-0.5c0-0.1,0-0.1-0.1-0.2
		c0,0,0,0,0,0c-0.4-1.8-1.7-3.4-3.6-4.9c0,0,0,0,0,0c-0.3-0.2-0.6-0.4-0.9-0.6c-5.3-3.7-15-6.7-28.9-7.1c-1.3,0-2.5-0.1-3.8-0.1
		c-1.3,0-2.5,0-3.8,0.1c-3.7,0.1-7.1,0.4-10.3,0.9C145.1,239.9,155.3,237.5,168.4,237.5L168.4,237.5z M136.3,246.5
		c0.4-0.1,0.8-0.1,1.2-0.2c0.5-0.1,1-0.2,1.5-0.3c0.4-0.1,0.9-0.1,1.3-0.2c0.5-0.1,1-0.1,1.5-0.2c0.4-0.1,0.9-0.1,1.3-0.2
		c0.9-0.1,1.8-0.2,2.7-0.2c0.4,0,0.7-0.1,1.1-0.1c0.7-0.1,1.4-0.1,2.2-0.1c0.3,0,0.7,0,1.1,0c1.1,0,2.1-0.1,3.3-0.1
		c1.2,0,2.4,0,3.6,0.1c0.7,0,1.4,0.1,2.1,0.1c0.5,0,0.9,0,1.3,0.1c0.9,0.1,1.8,0.2,2.7,0.2c0.2,0,0.4,0,0.6,0.1c1,0.1,2,0.2,3,0.4
		c0.1,0,0.1,0,0.2,0c5,0.7,9.3,1.9,12.7,3.2c0,0,0.1,0,0.1,0c0.6,0.2,1.2,0.5,1.7,0.8c0.1,0,0.2,0.1,0.2,0.1
		c0.5,0.2,0.9,0.5,1.4,0.7c0.1,0.1,0.2,0.1,0.4,0.2c0.4,0.2,0.7,0.4,1,0.7c0.1,0.1,0.3,0.2,0.4,0.3c0.3,0.2,0.5,0.4,0.8,0.6
		c0.1,0.1,0.3,0.2,0.4,0.4c0.2,0.2,0.4,0.4,0.5,0.6c0.1,0.1,0.2,0.3,0.3,0.4c0.1,0.2,0.2,0.4,0.3,0.5c0.1,0.2,0.2,0.3,0.2,0.5
		c0.1,0.2,0.1,0.4,0.2,0.5c0.1,0.2,0.1,0.5,0.1,0.7c0,5.3-14.1,11.2-34.3,11.2c-20.2,0-34.3-5.9-34.3-11.2
		C119.1,252.5,125.7,248.6,136.3,246.5L136.3,246.5z M153.4,321c-19.5,0-33.4-5.5-34.3-10.7c0-0.1,0-0.1,0-0.2v-12.6
		c0,0,0.1,0.1,0.1,0.1c0.3,0.3,0.7,0.6,1,0.8c5.6,4.3,16.9,7.6,33.2,7.6c16.2,0,27.4-3.3,33.1-7.5c0.5-0.3,0.9-0.7,1.2-1v12.5
		c0,0.1,0,0.1,0,0.2c-0.1,0.3-0.2,0.6-0.3,0.9c-0.1,0.1-0.1,0.2-0.2,0.4C184.5,316.4,171.3,321,153.4,321L153.4,321z M202.6,302.9
		c-0.5,2.9-4.9,5.8-11.9,7.8c0,0,0-0.1,0-0.1v-14.7c0.1,0,0.1,0,0.2-0.1c0.6-0.2,1.2-0.3,1.7-0.5c0,0,0,0,0,0
		c4.4-1.4,7.8-3.1,10-5.1v12.5C202.7,302.7,202.6,302.8,202.6,302.9L202.6,302.9z M202.6,302.9"/>
</g>
<g>
	<g>
		<g>
			<path class="st0" d="M369.8,240.8c-2.2,0-4.1,3.1-4.1,7c0,3.9,1.8,7,4.1,7c2.2,0,4.1-3.1,4.1-7
				C373.9,244,372.1,240.8,369.8,240.8L369.8,240.8z M369.8,251.7c-1.2,0-2.3-1.7-2.3-3.9c0-2.1,1-3.9,2.3-3.9
				c1.2,0,2.3,1.7,2.3,3.9C372.1,249.9,371.1,251.7,369.8,251.7L369.8,251.7z M369.8,251.7"/>
			<path class="st0" d="M406.5,245.5c0,0.9-0.4,1.6-0.9,1.6c-0.5,0-0.9-0.7-0.9-1.6c0-0.9,0.4-1.6,0.9-1.6
				C406.1,243.9,406.5,244.6,406.5,245.5L406.5,245.5z M406.5,245.5"/>
			<path class="st0" d="M402.8,245.5c0,0.9-0.4,1.6-0.9,1.6c-0.5,0-0.9-0.7-0.9-1.6c0-0.9,0.4-1.6,0.9-1.6
				C402.4,243.9,402.8,244.6,402.8,245.5L402.8,245.5z M402.8,245.5"/>
			<path class="st0" d="M408.3,250.1c0,0.9-0.4,1.5-0.9,1.5c-0.5,0-0.9-0.7-0.9-1.5c0-0.9,0.4-1.6,0.9-1.6
				C407.9,248.6,408.3,249.3,408.3,250.1L408.3,250.1z M408.3,250.1"/>
			<path class="st0" d="M404.6,250.1c0,0.9-0.4,1.5-0.9,1.5c-0.5,0-0.9-0.7-0.9-1.5c0-0.9,0.4-1.6,0.9-1.6
				C404.2,248.6,404.6,249.3,404.6,250.1L404.6,250.1z M404.6,250.1"/>
			<path class="st0" d="M399.2,245.5c0,0.9-0.4,1.6-0.9,1.6c-0.5,0-0.9-0.7-0.9-1.6c0-0.9,0.4-1.6,0.9-1.6
				C398.8,243.9,399.2,244.6,399.2,245.5L399.2,245.5z M399.2,245.5"/>
			<path class="st0" d="M401,250.1c0,0.9-0.4,1.5-0.9,1.5c-0.5,0-0.9-0.7-0.9-1.5c0-0.9,0.4-1.6,0.9-1.6
				C400.6,248.6,401,249.3,401,250.1L401,250.1z M401,250.1"/>
			<path class="st0" d="M395.6,245.5c0,0.9-0.4,1.6-0.9,1.6c-0.5,0-0.9-0.7-0.9-1.6c0-0.9,0.4-1.6,0.9-1.6
				C395.2,243.9,395.6,244.6,395.6,245.5L395.6,245.5z M395.6,245.5"/>
			<path class="st0" d="M397.4,250.1c0,0.9-0.4,1.5-0.9,1.5s-0.9-0.7-0.9-1.5c0-0.9,0.4-1.6,0.9-1.6S397.4,249.3,397.4,250.1
				L397.4,250.1z M397.4,250.1"/>
			<path class="st0" d="M392,245.5c0,0.9-0.4,1.6-0.9,1.6c-0.5,0-0.9-0.7-0.9-1.6c0-0.9,0.4-1.6,0.9-1.6
				C391.6,243.9,392,244.6,392,245.5L392,245.5z M392,245.5"/>
			<path class="st0" d="M393.8,250.1c0,0.9-0.4,1.5-0.9,1.5c-0.5,0-0.9-0.7-0.9-1.5c0-0.9,0.4-1.6,0.9-1.6
				C393.4,248.6,393.8,249.3,393.8,250.1L393.8,250.1z M393.8,250.1"/>
			<path class="st0" d="M414.6,256.9v-18.3c0-3.9-1.9-7.1-4.2-7.1h-45.9c-2.3,0-4.2,3.2-4.2,7.1v18.3c0,2.3,0.6,4.3,1.6,5.6
				c-1,1.3-1.6,3.3-1.6,5.6v18.3c0,2.3,0.6,4.3,1.6,5.6c-1,1.3-1.6,3.3-1.6,5.6v18.3c0,3.9,1.9,7.1,4.2,7.1h45.9
				c2.3,0,4.2-3.2,4.2-7.1v-18.3c0-2.3-0.6-4.3-1.6-5.6c1-1.3,1.6-3.3,1.6-5.6v-18.3c0-2.3-0.6-4.3-1.6-5.6
				C414,261.2,414.6,259.2,414.6,256.9L414.6,256.9z M412.8,297.6v18.3c0,2.2-1.1,4-2.4,4h-45.9c-1.3,0-2.4-1.8-2.4-4v-18.3
				c0-2.2,1.1-4,2.4-4h45.9C411.7,293.5,412.8,295.3,412.8,297.6L412.8,297.6z M412.8,268.1v18.3c0,2.2-1.1,4-2.4,4h-45.9
				c-1.3,0-2.4-1.8-2.4-4v-18.3c0-2.2,1.1-4,2.4-4h45.9C411.7,264.1,412.8,265.9,412.8,268.1L412.8,268.1z M364.5,261
				c-1.3,0-2.4-1.8-2.4-4v-18.3c0-2.2,1.1-4,2.4-4h45.9c1.3,0,2.4,1.8,2.4,4v18.3c0,2.2-1.1,4-2.4,4H364.5z M364.5,261"/>
			<path class="st0" d="M369.8,284.2c2.2,0,4.1-3.1,4.1-7c0-3.9-1.8-7-4.1-7c-2.2,0-4.1,3.1-4.1,7
				C365.8,281.1,367.6,284.2,369.8,284.2L369.8,284.2z M369.8,273.4c1.2,0,2.3,1.7,2.3,3.9c0,2.1-1,3.9-2.3,3.9
				c-1.2,0-2.3-1.7-2.3-3.9C367.6,275.1,368.6,273.4,369.8,273.4L369.8,273.4z M369.8,273.4"/>
			<path class="st0" d="M406.5,274.9c0,0.9-0.4,1.6-0.9,1.6c-0.5,0-0.9-0.7-0.9-1.6c0-0.9,0.4-1.5,0.9-1.5
				C406.1,273.4,406.5,274.1,406.5,274.9L406.5,274.9z M406.5,274.9"/>
			<path class="st0" d="M402.8,274.9c0,0.9-0.4,1.6-0.9,1.6c-0.5,0-0.9-0.7-0.9-1.6c0-0.9,0.4-1.5,0.9-1.5
				C402.4,273.4,402.8,274.1,402.8,274.9L402.8,274.9z M402.8,274.9"/>
			<path class="st0" d="M408.3,279.6c0,0.9-0.4,1.6-0.9,1.6c-0.5,0-0.9-0.7-0.9-1.6c0-0.9,0.4-1.6,0.9-1.6
				C407.9,278,408.3,278.7,408.3,279.6L408.3,279.6z M408.3,279.6"/>
			<path class="st0" d="M404.6,279.6c0,0.9-0.4,1.6-0.9,1.6c-0.5,0-0.9-0.7-0.9-1.6c0-0.9,0.4-1.6,0.9-1.6
				C404.2,278,404.6,278.7,404.6,279.6L404.6,279.6z M404.6,279.6"/>
			<path class="st0" d="M399.2,274.9c0,0.9-0.4,1.6-0.9,1.6c-0.5,0-0.9-0.7-0.9-1.6c0-0.9,0.4-1.5,0.9-1.5
				C398.8,273.4,399.2,274.1,399.2,274.9L399.2,274.9z M399.2,274.9"/>
			<path class="st0" d="M401,279.6c0,0.9-0.4,1.6-0.9,1.6c-0.5,0-0.9-0.7-0.9-1.6c0-0.9,0.4-1.6,0.9-1.6
				C400.6,278,401,278.7,401,279.6L401,279.6z M401,279.6"/>
			<path class="st0" d="M395.6,274.9c0,0.9-0.4,1.6-0.9,1.6c-0.5,0-0.9-0.7-0.9-1.6c0-0.9,0.4-1.5,0.9-1.5
				C395.2,273.4,395.6,274.1,395.6,274.9L395.6,274.9z M395.6,274.9"/>
			<path class="st0" d="M397.4,279.6c0,0.9-0.4,1.6-0.9,1.6s-0.9-0.7-0.9-1.6c0-0.9,0.4-1.6,0.9-1.6S397.4,278.7,397.4,279.6
				L397.4,279.6z M397.4,279.6"/>
			<path class="st0" d="M392,274.9c0,0.9-0.4,1.6-0.9,1.6c-0.5,0-0.9-0.7-0.9-1.6c0-0.9,0.4-1.5,0.9-1.5
				C391.6,273.4,392,274.1,392,274.9L392,274.9z M392,274.9"/>
			<path class="st0" d="M393.8,279.6c0,0.9-0.4,1.6-0.9,1.6c-0.5,0-0.9-0.7-0.9-1.6c0-0.9,0.4-1.6,0.9-1.6
				C393.4,278,393.8,278.7,393.8,279.6L393.8,279.6z M393.8,279.6"/>
			<path class="st0" d="M369.8,313.7c2.2,0,4.1-3.1,4.1-7c0-3.8-1.8-7-4.1-7c-2.2,0-4.1,3.1-4.1,7
				C365.8,310.5,367.6,313.7,369.8,313.7L369.8,313.7z M369.8,302.8c1.2,0,2.3,1.7,2.3,3.9c0,2.1-1,3.9-2.3,3.9
				c-1.2,0-2.3-1.7-2.3-3.9C367.6,304.6,368.6,302.8,369.8,302.8L369.8,302.8z M369.8,302.8"/>
			<path class="st0" d="M406.5,304.4c0,0.9-0.4,1.5-0.9,1.5c-0.5,0-0.9-0.7-0.9-1.5c0-0.9,0.4-1.6,0.9-1.6
				C406.1,302.8,406.5,303.5,406.5,304.4L406.5,304.4z M406.5,304.4"/>
			<path class="st0" d="M402.8,304.4c0,0.9-0.4,1.5-0.9,1.5c-0.5,0-0.9-0.7-0.9-1.5c0-0.9,0.4-1.6,0.9-1.6
				C402.4,302.8,402.8,303.5,402.8,304.4L402.8,304.4z M402.8,304.4"/>
			<path class="st0" d="M408.3,309c0,0.9-0.4,1.6-0.9,1.6c-0.5,0-0.9-0.7-0.9-1.6s0.4-1.6,0.9-1.6
				C407.9,307.5,408.3,308.2,408.3,309L408.3,309z M408.3,309"/>
			<path class="st0" d="M404.6,309c0,0.9-0.4,1.6-0.9,1.6c-0.5,0-0.9-0.7-0.9-1.6s0.4-1.6,0.9-1.6
				C404.2,307.5,404.6,308.2,404.6,309L404.6,309z M404.6,309"/>
			<path class="st0" d="M399.2,304.4c0,0.9-0.4,1.5-0.9,1.5c-0.5,0-0.9-0.7-0.9-1.5c0-0.9,0.4-1.6,0.9-1.6
				C398.8,302.8,399.2,303.5,399.2,304.4L399.2,304.4z M399.2,304.4"/>
			<path class="st0" d="M401,309c0,0.9-0.4,1.6-0.9,1.6c-0.5,0-0.9-0.7-0.9-1.6s0.4-1.6,0.9-1.6C400.6,307.5,401,308.2,401,309
				L401,309z M401,309"/>
			<path class="st0" d="M395.6,304.4c0,0.9-0.4,1.5-0.9,1.5c-0.5,0-0.9-0.7-0.9-1.5c0-0.9,0.4-1.6,0.9-1.6
				C395.2,302.8,395.6,303.5,395.6,304.4L395.6,304.4z M395.6,304.4"/>
			<path class="st0" d="M397.4,309c0,0.9-0.4,1.6-0.9,1.6s-0.9-0.7-0.9-1.6s0.4-1.6,0.9-1.6S397.4,308.2,397.4,309L397.4,309z
				 M397.4,309"/>
			<path class="st0" d="M392,304.4c0,0.9-0.4,1.5-0.9,1.5c-0.5,0-0.9-0.7-0.9-1.5c0-0.9,0.4-1.6,0.9-1.6
				C391.6,302.8,392,303.5,392,304.4L392,304.4z M392,304.4"/>
			<path class="st0" d="M393.8,309c0,0.9-0.4,1.6-0.9,1.6c-0.5,0-0.9-0.7-0.9-1.6s0.4-1.6,0.9-1.6
				C393.4,307.5,393.8,308.2,393.8,309L393.8,309z M393.8,309"/>
		</g>
	</g>
	<g>
		<g>
			<path class="st0" d="M433.8,240.8c-2.2,0-4.1,3.1-4.1,7c0,3.9,1.8,7,4.1,7c2.2,0,4.1-3.1,4.1-7C437.8,244,436,240.8,433.8,240.8
				L433.8,240.8z M433.8,251.7c-1.2,0-2.3-1.7-2.3-3.9c0-2.1,1-3.9,2.3-3.9c1.2,0,2.3,1.7,2.3,3.9C436,249.9,435,251.7,433.8,251.7
				L433.8,251.7z M433.8,251.7"/>
			<path class="st0" d="M470.4,245.5c0,0.9-0.4,1.6-0.9,1.6c-0.5,0-0.9-0.7-0.9-1.6c0-0.9,0.4-1.6,0.9-1.6
				C470,243.9,470.4,244.6,470.4,245.5L470.4,245.5z M470.4,245.5"/>
			<path class="st0" d="M466.8,245.5c0,0.9-0.4,1.6-0.9,1.6c-0.5,0-0.9-0.7-0.9-1.6c0-0.9,0.4-1.6,0.9-1.6
				C466.4,243.9,466.8,244.6,466.8,245.5L466.8,245.5z M466.8,245.5"/>
			<path class="st0" d="M472.2,250.1c0,0.9-0.4,1.5-0.9,1.5c-0.5,0-0.9-0.7-0.9-1.5c0-0.9,0.4-1.6,0.9-1.6
				C471.8,248.6,472.2,249.3,472.2,250.1L472.2,250.1z M472.2,250.1"/>
			<path class="st0" d="M468.6,250.1c0,0.9-0.4,1.5-0.9,1.5c-0.5,0-0.9-0.7-0.9-1.5c0-0.9,0.4-1.6,0.9-1.6
				C468.2,248.6,468.6,249.3,468.6,250.1L468.6,250.1z M468.6,250.1"/>
			<path class="st0" d="M463.1,245.5c0,0.9-0.4,1.6-0.9,1.6c-0.5,0-0.9-0.7-0.9-1.6c0-0.9,0.4-1.6,0.9-1.6
				C462.7,243.9,463.1,244.6,463.1,245.5L463.1,245.5z M463.1,245.5"/>
			<path class="st0" d="M465,250.1c0,0.9-0.4,1.5-0.9,1.5c-0.5,0-0.9-0.7-0.9-1.5c0-0.9,0.4-1.6,0.9-1.6
				C464.6,248.6,465,249.3,465,250.1L465,250.1z M465,250.1"/>
			<path class="st0" d="M459.5,245.5c0,0.9-0.4,1.6-0.9,1.6c-0.5,0-0.9-0.7-0.9-1.6c0-0.9,0.4-1.6,0.9-1.6
				C459.1,243.9,459.5,244.6,459.5,245.5L459.5,245.5z M459.5,245.5"/>
			<path class="st0" d="M461.3,250.1c0,0.9-0.4,1.5-0.9,1.5s-0.9-0.7-0.9-1.5c0-0.9,0.4-1.6,0.9-1.6S461.3,249.3,461.3,250.1
				L461.3,250.1z M461.3,250.1"/>
			<path class="st0" d="M455.9,245.5c0,0.9-0.4,1.6-0.9,1.6c-0.5,0-0.9-0.7-0.9-1.6c0-0.9,0.4-1.6,0.9-1.6
				C455.5,243.9,455.9,244.6,455.9,245.5L455.9,245.5z M455.9,245.5"/>
			<path class="st0" d="M457.7,250.1c0,0.9-0.4,1.5-0.9,1.5c-0.5,0-0.9-0.7-0.9-1.5c0-0.9,0.4-1.6,0.9-1.6
				C457.3,248.6,457.7,249.3,457.7,250.1L457.7,250.1z M457.7,250.1"/>
			<path class="st0" d="M478.5,256.9v-18.3c0-3.9-1.9-7.1-4.2-7.1h-45.9c-2.3,0-4.2,3.2-4.2,7.1v18.3c0,2.3,0.6,4.3,1.6,5.6
				c-1,1.3-1.6,3.3-1.6,5.6v18.3c0,2.3,0.6,4.3,1.6,5.6c-1,1.3-1.6,3.3-1.6,5.6v18.3c0,3.9,1.9,7.1,4.2,7.1h45.9
				c2.3,0,4.2-3.2,4.2-7.1v-18.3c0-2.3-0.6-4.3-1.6-5.6c1-1.3,1.6-3.3,1.6-5.6v-18.3c0-2.3-0.6-4.3-1.6-5.6
				C477.9,261.2,478.5,259.2,478.5,256.9L478.5,256.9z M476.7,297.6v18.3c0,2.2-1.1,4-2.4,4h-45.9c-1.3,0-2.4-1.8-2.4-4v-18.3
				c0-2.2,1.1-4,2.4-4h45.9C475.7,293.5,476.7,295.3,476.7,297.6L476.7,297.6z M476.7,268.1v18.3c0,2.2-1.1,4-2.4,4h-45.9
				c-1.3,0-2.4-1.8-2.4-4v-18.3c0-2.2,1.1-4,2.4-4h45.9C475.7,264.1,476.7,265.9,476.7,268.1L476.7,268.1z M428.4,261
				c-1.3,0-2.4-1.8-2.4-4v-18.3c0-2.2,1.1-4,2.4-4h45.9c1.3,0,2.4,1.8,2.4,4v18.3c0,2.2-1.1,4-2.4,4H428.4z M428.4,261"/>
			<path class="st0" d="M433.8,284.2c2.2,0,4.1-3.1,4.1-7c0-3.9-1.8-7-4.1-7c-2.2,0-4.1,3.1-4.1,7
				C429.7,281.1,431.5,284.2,433.8,284.2L433.8,284.2z M433.8,273.4c1.2,0,2.3,1.7,2.3,3.9c0,2.1-1,3.9-2.3,3.9
				c-1.2,0-2.3-1.7-2.3-3.9C431.5,275.1,432.5,273.4,433.8,273.4L433.8,273.4z M433.8,273.4"/>
			<path class="st0" d="M470.4,274.9c0,0.9-0.4,1.6-0.9,1.6c-0.5,0-0.9-0.7-0.9-1.6c0-0.9,0.4-1.5,0.9-1.5
				C470,273.4,470.4,274.1,470.4,274.9L470.4,274.9z M470.4,274.9"/>
			<path class="st0" d="M466.8,274.9c0,0.9-0.4,1.6-0.9,1.6c-0.5,0-0.9-0.7-0.9-1.6c0-0.9,0.4-1.5,0.9-1.5
				C466.4,273.4,466.8,274.1,466.8,274.9L466.8,274.9z M466.8,274.9"/>
			<path class="st0" d="M472.2,279.6c0,0.9-0.4,1.6-0.9,1.6c-0.5,0-0.9-0.7-0.9-1.6c0-0.9,0.4-1.6,0.9-1.6
				C471.8,278,472.2,278.7,472.2,279.6L472.2,279.6z M472.2,279.6"/>
			<path class="st0" d="M468.6,279.6c0,0.9-0.4,1.6-0.9,1.6c-0.5,0-0.9-0.7-0.9-1.6c0-0.9,0.4-1.6,0.9-1.6
				C468.2,278,468.6,278.7,468.6,279.6L468.6,279.6z M468.6,279.6"/>
			<path class="st0" d="M463.1,274.9c0,0.9-0.4,1.6-0.9,1.6c-0.5,0-0.9-0.7-0.9-1.6c0-0.9,0.4-1.5,0.9-1.5
				C462.7,273.4,463.1,274.1,463.1,274.9L463.1,274.9z M463.1,274.9"/>
			<path class="st0" d="M465,279.6c0,0.9-0.4,1.6-0.9,1.6c-0.5,0-0.9-0.7-0.9-1.6c0-0.9,0.4-1.6,0.9-1.6
				C464.6,278,465,278.7,465,279.6L465,279.6z M465,279.6"/>
			<path class="st0" d="M459.5,274.9c0,0.9-0.4,1.6-0.9,1.6c-0.5,0-0.9-0.7-0.9-1.6c0-0.9,0.4-1.5,0.9-1.5
				C459.1,273.4,459.5,274.1,459.5,274.9L459.5,274.9z M459.5,274.9"/>
			<path class="st0" d="M461.3,279.6c0,0.9-0.4,1.6-0.9,1.6s-0.9-0.7-0.9-1.6c0-0.9,0.4-1.6,0.9-1.6S461.3,278.7,461.3,279.6
				L461.3,279.6z M461.3,279.6"/>
			<path class="st0" d="M455.9,274.9c0,0.9-0.4,1.6-0.9,1.6c-0.5,0-0.9-0.7-0.9-1.6c0-0.9,0.4-1.5,0.9-1.5
				C455.5,273.4,455.9,274.1,455.9,274.9L455.9,274.9z M455.9,274.9"/>
			<path class="st0" d="M457.7,279.6c0,0.9-0.4,1.6-0.9,1.6c-0.5,0-0.9-0.7-0.9-1.6c0-0.9,0.4-1.6,0.9-1.6
				C457.3,278,457.7,278.7,457.7,279.6L457.7,279.6z M457.7,279.6"/>
			<path class="st0" d="M433.8,313.7c2.2,0,4.1-3.1,4.1-7c0-3.8-1.8-7-4.1-7c-2.2,0-4.1,3.1-4.1,7
				C429.7,310.5,431.5,313.7,433.8,313.7L433.8,313.7z M433.8,302.8c1.2,0,2.3,1.7,2.3,3.9c0,2.1-1,3.9-2.3,3.9
				c-1.2,0-2.3-1.7-2.3-3.9C431.5,304.6,432.5,302.8,433.8,302.8L433.8,302.8z M433.8,302.8"/>
			<path class="st0" d="M470.4,304.4c0,0.9-0.4,1.5-0.9,1.5c-0.5,0-0.9-0.7-0.9-1.5c0-0.9,0.4-1.6,0.9-1.6
				C470,302.8,470.4,303.5,470.4,304.4L470.4,304.4z M470.4,304.4"/>
			<path class="st0" d="M466.8,304.4c0,0.9-0.4,1.5-0.9,1.5c-0.5,0-0.9-0.7-0.9-1.5c0-0.9,0.4-1.6,0.9-1.6
				C466.4,302.8,466.8,303.5,466.8,304.4L466.8,304.4z M466.8,304.4"/>
			<path class="st0" d="M472.2,309c0,0.9-0.4,1.6-0.9,1.6c-0.5,0-0.9-0.7-0.9-1.6s0.4-1.6,0.9-1.6
				C471.8,307.5,472.2,308.2,472.2,309L472.2,309z M472.2,309"/>
			<path class="st0" d="M468.6,309c0,0.9-0.4,1.6-0.9,1.6c-0.5,0-0.9-0.7-0.9-1.6s0.4-1.6,0.9-1.6
				C468.2,307.5,468.6,308.2,468.6,309L468.6,309z M468.6,309"/>
			<path class="st0" d="M463.1,304.4c0,0.9-0.4,1.5-0.9,1.5c-0.5,0-0.9-0.7-0.9-1.5c0-0.9,0.4-1.6,0.9-1.6
				C462.7,302.8,463.1,303.5,463.1,304.4L463.1,304.4z M463.1,304.4"/>
			<path class="st0" d="M465,309c0,0.9-0.4,1.6-0.9,1.6c-0.5,0-0.9-0.7-0.9-1.6s0.4-1.6,0.9-1.6C464.6,307.5,465,308.2,465,309
				L465,309z M465,309"/>
			<path class="st0" d="M459.5,304.4c0,0.9-0.4,1.5-0.9,1.5c-0.5,0-0.9-0.7-0.9-1.5c0-0.9,0.4-1.6,0.9-1.6
				C459.1,302.8,459.5,303.5,459.5,304.4L459.5,304.4z M459.5,304.4"/>
			<path class="st0" d="M461.3,309c0,0.9-0.4,1.6-0.9,1.6s-0.9-0.7-0.9-1.6s0.4-1.6,0.9-1.6S461.3,308.2,461.3,309L461.3,309z
				 M461.3,309"/>
			<path class="st0" d="M455.9,304.4c0,0.9-0.4,1.5-0.9,1.5c-0.5,0-0.9-0.7-0.9-1.5c0-0.9,0.4-1.6,0.9-1.6
				C455.5,302.8,455.9,303.5,455.9,304.4L455.9,304.4z M455.9,304.4"/>
			<path class="st0" d="M457.7,309c0,0.9-0.4,1.6-0.9,1.6c-0.5,0-0.9-0.7-0.9-1.6s0.4-1.6,0.9-1.6
				C457.3,307.5,457.7,308.2,457.7,309L457.7,309z M457.7,309"/>
		</g>
	</g>
</g>
<g>
	<g>
		<g>
			<path class="st0" d="M329.1,105.9c-0.2-11.2-14.5-20.6-32-20.6c-11.2,0-21.7,3.9-27.5,9.4c-2.6-1.1-5.6-1.7-8.9-1.7
				c-8.9,0-16.1,4.6-16.1,10.3c0,0.2,0,0.4,0.1,0.6c0,0.2-0.1,0.5-0.1,0.7c-8,2.5-14.1,8.3-14.1,14.3c0,8.4,10.7,15.2,23.8,15.2
				h49.3c0.3,0,0.5,0,0.8,0c0.3,0,0.6,0,0.8,0H325c12.2,0,22.2-6.4,22.2-14.2C347.2,113.1,339.3,107.1,329.1,105.9L329.1,105.9z
				 M329.1,105.9"/>
			<path class="st0" d="M329.1,105.9c0,0-5.1-0.5-10.1,0"/>
			<path class="st0" d="M244.5,103.3c0-5.7,7.2-10.3,16.1-10.3c8.9,0,16.1,4.6,16.1,10.3"/>
		</g>
		<g>
			<path class="st0" d="M248.5,131.8c0.2,11.2,14.5,20.6,32,20.6c11.2,0,21.7-3.9,27.5-9.4c2.6,1.1,5.6,1.7,8.9,1.7
				c8.9,0,16.1-4.6,16.1-10.3c0-0.2,0-0.4-0.1-0.6c0-0.2,0.1-0.5,0.1-0.7c8-2.5,14.1-8.3,14.1-14.3c0-8.4-10.7-15.2-23.8-15.2H274
				c-0.3,0-0.5,0-0.8,0c-0.3,0-0.6,0-0.8,0h-19.7c-12.2,0-22.2,6.4-22.2,14.2C230.4,124.6,238.3,130.6,248.5,131.8L248.5,131.8z
				 M248.5,131.8"/>
			<path class="st0" d="M248.5,131.8c0,0,5.1,0.5,10.1,0"/>
			<path class="st0" d="M333.1,134.4c0,5.7-7.2,10.3-16.1,10.3c-8.9,0-16.1-4.6-16.1-10.3"/>
		</g>
	</g>
	<g>
		<g>
			<path class="st0" d="M283.5,135.8c-1.2,0-2.3-0.6-3.1-1.5l-9.9-13c-1.3-1.7-1-4.1,0.7-5.4c1.7-1.3,4.1-0.9,5.4,0.7l6.5,8.6
				l16.3-26.2c1.1-1.8,3.5-2.4,5.3-1.2c1.8,1.1,2.4,3.5,1.2,5.3l-19.3,31c-0.7,1.1-1.8,1.8-3.1,1.8
				C283.7,135.8,283.6,135.8,283.5,135.8L283.5,135.8z M283.5,135.8"/>
		</g>
	</g>
</g>
<g>
	<g>
		<path class="st0" d="M305.6,390.5l-3.6-1c-0.5-0.2-0.9-0.1-1.4,0.1c-0.4,0.3-0.7,0.6-0.9,1.1l-21.6,74.9c-0.2,0.5-0.1,1,0.1,1.4
			c0.3,0.4,0.6,0.7,1.1,0.9l3.6,1c0.5,0.2,0.9,0.1,1.4-0.1c0.4-0.3,0.7-0.6,0.9-1.1l21.6-74.9c0.2-0.5,0.1-1-0.1-1.4
			C306.5,391,306.1,390.7,305.6,390.5L305.6,390.5z M305.6,390.5"/>
	</g>
	<path class="st0" d="M273.2,405.1c0-0.5-0.2-0.9-0.6-1.3l-2.9-2.9c-0.4-0.4-0.8-0.6-1.3-0.6c-0.5,0-0.9,0.2-1.3,0.6l-27,27
		c-0.4,0.4-0.6,0.8-0.6,1.3c0,0.5,0.2,0.9,0.6,1.3l27,27c0.4,0.4,0.8,0.6,1.3,0.6c0.5,0,0.9-0.2,1.3-0.6l2.9-2.9
		c0.4-0.4,0.6-0.8,0.6-1.3c0-0.5-0.2-0.9-0.6-1.3l-22.8-22.8l22.8-22.8C273,406.1,273.2,405.7,273.2,405.1L273.2,405.1z
		 M273.2,405.1"/>
	<path class="st0" d="M345,428l-27-27c-0.4-0.4-0.8-0.6-1.3-0.6c-0.5,0-0.9,0.2-1.3,0.6l-2.9,2.9c-0.4,0.4-0.6,0.8-0.6,1.3
		c0,0.5,0.2,0.9,0.6,1.3l22.8,22.8l-22.8,22.8c-0.4,0.4-0.6,0.8-0.6,1.3c0,0.5,0.2,0.9,0.6,1.3l2.9,2.9c0.4,0.4,0.8,0.6,1.3,0.6
		c0.5,0,0.9-0.2,1.3-0.6l27-27c0.4-0.4,0.6-0.8,0.6-1.3C345.6,428.8,345.4,428.3,345,428L345,428z M345,428"/>
</g>
</svg>
