<svg fill="none" height="15" viewBox="0 0 15 15" width="15" xmlns="http://www.w3.org/2000/svg"><g fill="#fff"><path d="m.744825.573256c.277075-.277077.726305-.277077 1.003385-.000001l12.93249 12.932545c.2771.277.2771.7263 0 1.0033-.2771.2771-.7263.2771-1.0034 0l-12.932475-12.93246c-.277076-.27708-.277076-.726308 0-1.003384z"/><path d="m.856313 14.5091c-.277077-.277-.277077-.7263 0-1.0033l12.932487-12.932543c.2771-.277077.7263-.277077 1.0034-.000001.2771.277077.2771.726304 0 1.003384l-12.9325 12.93246c-.27708.2771-.72631.2771-1.003387 0z"/></g></svg>
